<svg viewBox="0 0 64 64" xmlns="http://www.w3.org/2000/svg">
  <defs>
    <linearGradient id="gradient" x1="0%" y1="0%" x2="100%" y2="0%">
      <stop offset="20%" stop-color="#46A0AE" />
      <stop offset="100%" stop-color="#00FFCB" />
    </linearGradient>
  </defs>
  <circle cx="37" cy="41" r="2" fill="url(#gradient)" />
  <circle cx="25" cy="35" r="4" fill="url(#gradient)" />
  <circle cx="30" cy="23" r="2" fill="url(#gradient)" />
  <path d="m61 30a2 2 0 0 1 0 4h-3a26.086 26.086 0 0 0 -7.32 1.4 18.748 18.748 0 0 1 -2.39 6.34 28.829 28.829 0 0 0 4.86 7.44l1.83 1.82h.02a3 3 0 1 1 -3 3v-.02l-1.82-1.83a28.5 28.5 0 0 0 -7.14-4.72 18.85 18.85 0 0 1 -7.64 3.25 26.086 26.086 0 0 0 -1.4 7.32v3a2 2 0 0 1 -4 0v-3a26.086 26.086 0 0 0 -1.4-7.32 18.85 18.85 0 0 1 -7.64-3.25 28.5 28.5 0 0 0 -7.14 4.72l-1.82 1.83v.02a3 3 0 1 1 -3-3h.02l1.83-1.82a28.829 28.829 0 0 0 4.86-7.44 18.748 18.748 0 0 1 -2.39-6.34 26.086 26.086 0 0 0 -7.32-1.4h-3a2 2 0 0 1 0-4h3a26.086 26.086 0 0 0 7.32-1.4 18.748 18.748 0 0 1 2.39-6.34 28.829 28.829 0 0 0 -4.86-7.44l-1.83-1.82h-.02a3 3 0 1 1 3-3v.02l1.82 1.83a28.5 28.5 0 0 0 7.14 4.72 18.85 18.85 0 0 1 7.64-3.25 26.086 26.086 0 0 0 1.4-7.32v-3a2 2 0 0 1 4 0v3a26.086 26.086 0 0 0 1.4 7.32 18.85 18.85 0 0 1 7.64 3.25 28.5 28.5 0 0 0 7.14-4.72l1.82-1.83v-.02a3 3 0 1 1 3 3h-.02l-1.83 1.82a28.829 28.829 0 0 0 -4.86 7.44 18.748 18.748 0 0 1 2.39 6.34 26.086 26.086 0 0 0 7.32 1.4zm-17-1a3 3 0 1 0 -3 3 3 3 0 0 0 3-3zm-5 12a2 2 0 1 0 -2 2 2.006 2.006 0 0 0 2-2zm-7-18a2 2 0 1 0 -2 2 2.006 2.006 0 0 0 2-2zm-3 12a4 4 0 1 0 -4 4 4 4 0 0 0 4-4z" fill="url(#gradient)" />
  <circle cx="41" cy="29" r="3" fill="url(#gradient)" />
  <path d="m32 16a16 16 0 1 0 16 16 16 16 0 0 0 -16-16zm-7 23a4 4 0 1 1 4-4 4 4 0 0 1 -4 4zm5-14a2 2 0 1 1 2-2 2.006 2.006 0 0 1 -2 2zm7 18a2 2 0 1 1 2-2 2.006 2.006 0 0 1 -2 2zm4-11a3 3 0 1 1 3-3 3 3 0 0 1 -3 3z" fill="url(#gradient)" />
  <circle cx="9" cy="10" r="2" fill="url(#gradient)" />
  <circle cx="55" cy="10" r="2" fill="url(#gradient)" />
  <circle cx="55" cy="54" r="2" fill="url(#gradient)" />
  <circle cx="9" cy="54" r="2" fill="url(#gradient)" />
</svg>
