<?xml version="1.0" standalone="no"?>
<!DOCTYPE svg PUBLIC "-//W3C//DTD SVG 20010904//EN"
 "http://www.w3.org/TR/2001/REC-SVG-20010904/DTD/svg10.dtd">
<svg version="1.0" xmlns="http://www.w3.org/2000/svg"
 width="1080.000000pt" height="913.000000pt" viewBox="0 0 1080.000000 913.000000"
 preserveAspectRatio="xMidYMid meet">
 <defs>
    <linearGradient id="gradient1" x1="0%" y1="0%" x2="100%" y2="0%">
      <stop offset="0%" style="stop-color:#00FFCB;stop-opacity:1" />
      <stop offset="100%" style="stop-color:#46A0AE;stop-opacity:1" />
    </linearGradient>
  </defs>

<g transform="translate(0.000000,913.000000) scale(0.100000,-0.100000)"
   fill="url(#gradient1)" stroke="none">
<path d="M5485 8346 c-80 -40 -88 -46 -133 -103 -53 -69 -64 -124 -42 -205 13
-45 14 -46 87 -59 67 -12 84 -24 76 -47 -9 -23 -53 -92 -75 -118 -19 -21 -52
-79 -83 -143 -20 -42 -24 -213 -6 -278 10 -37 16 -43 46 -49 19 -3 74 -4 124
-3 75 3 94 8 121 28 42 31 94 34 97 6 4 -30 -35 -68 -144 -140 -135 -90 -205
-156 -270 -253 -30 -46 -59 -82 -65 -80 -6 2 -18 22 -27 45 -9 22 -21 47 -27
54 -6 8 -17 32 -25 54 -7 22 -21 51 -30 65 -9 14 -20 41 -24 60 -4 19 -20 55
-36 79 -19 29 -29 57 -29 82 0 33 4 39 38 56 l37 18 0 97 0 97 -40 36 c-21 20
-49 42 -61 48 -30 17 -78 76 -94 115 -12 30 -11 35 7 53 16 17 24 18 47 9 37
-14 99 -13 114 2 25 25 14 72 -31 121 -23 26 -46 47 -52 47 -5 0 -27 12 -48
27 -38 26 -47 28 -176 31 -151 5 -302 -10 -336 -32 -12 -8 -48 -22 -79 -31
-31 -9 -56 -20 -56 -24 0 -4 -16 -16 -35 -27 -19 -10 -35 -21 -35 -24 0 -4 -9
-16 -20 -28 -11 -12 -25 -33 -30 -47 -15 -38 -12 -117 5 -139 14 -18 16 -17
59 22 25 23 52 42 59 42 8 0 26 9 40 20 14 11 51 25 81 31 61 11 113 38 157
82 37 37 79 45 103 18 15 -16 17 -29 11 -71 -6 -42 -14 -59 -48 -92 -23 -22
-57 -45 -77 -50 -19 -6 -48 -16 -65 -23 -16 -8 -59 -21 -95 -29 -51 -13 -72
-24 -99 -52 -28 -30 -32 -41 -27 -67 3 -18 19 -43 36 -57 30 -26 54 -75 44
-91 -3 -5 -33 -9 -68 -9 -91 0 -176 -18 -217 -46 -19 -13 -39 -24 -45 -24 -8
0 -67 -56 -118 -111 -8 -9 -30 -54 -48 -100 -41 -105 -45 -205 -10 -281 12
-26 22 -51 22 -57 0 -5 8 -23 17 -39 35 -61 162 -72 219 -20 30 27 54 14 54
-28 0 -23 -7 -40 -21 -52 -12 -9 -29 -24 -38 -33 -9 -8 -30 -21 -48 -28 -17
-7 -39 -21 -49 -32 -9 -10 -23 -19 -29 -19 -16 0 -225 -205 -250 -245 -11 -16
-32 -46 -47 -66 -42 -55 -52 -117 -34 -224 8 -50 21 -103 30 -120 9 -16 16
-37 16 -46 0 -9 8 -23 18 -32 33 -30 84 -20 207 38 113 54 169 67 178 43 8
-25 -79 -109 -158 -154 -61 -35 -235 -231 -235 -265 0 -8 -10 -30 -22 -49 -24
-40 -47 -154 -47 -238 0 -129 49 -257 126 -335 72 -71 81 -77 129 -94 27 -9
60 -23 74 -32 32 -21 147 -18 215 4 79 27 308 31 471 10 137 -18 176 -17 298
9 85 18 113 38 150 108 22 44 29 74 33 139 5 74 2 95 -25 178 -17 52 -40 104
-50 115 -118 127 -147 147 -270 186 -97 31 -109 32 -205 27 -65 -4 -123 -13
-159 -26 -32 -12 -69 -21 -83 -21 -14 0 -52 -14 -85 -31 -42 -22 -69 -29 -97
-27 -44 3 -51 26 -15 44 12 6 33 20 45 32 32 30 135 81 186 93 24 5 56 18 71
29 18 13 57 23 111 29 46 6 100 15 119 21 19 6 91 10 160 9 115 0 208 11 236
29 6 4 23 25 38 46 22 33 26 49 26 114 0 53 -6 88 -19 116 -10 23 -24 64 -31
91 -6 28 -20 64 -31 82 -17 27 -20 51 -21 176 0 145 0 145 37 242 21 53 43 99
50 102 7 2 16 15 19 27 9 35 146 155 231 202 17 9 38 23 48 32 9 8 48 28 85
43 76 30 95 25 90 -25 -3 -31 -12 -37 -80 -51 -15 -3 -34 -12 -42 -20 -8 -9
-32 -23 -51 -31 -40 -17 -93 -72 -112 -116 -7 -16 -21 -40 -32 -54 -26 -33
-35 -141 -22 -266 11 -109 34 -161 107 -238 55 -58 64 -99 29 -126 -14 -10
-25 -24 -25 -30 0 -6 -11 -20 -24 -31 -20 -18 -25 -34 -31 -102 -8 -89 1 -285
16 -341 5 -20 22 -49 38 -64 29 -28 32 -28 76 -17 46 11 92 32 205 90 31 16
89 35 134 42 77 13 79 13 97 -10 10 -13 17 -27 14 -31 -7 -11 -105 -57 -172
-80 -115 -41 -243 -168 -310 -310 -61 -129 -95 -372 -63 -454 5 -15 14 -67 20
-116 6 -53 18 -102 29 -122 11 -18 25 -52 32 -75 19 -65 84 -120 152 -128 47
-6 61 -3 132 30 195 90 212 99 294 155 32 21 37 18 45 -22 5 -32 -54 -97 -169
-183 -76 -57 -197 -171 -240 -225 -62 -79 -85 -112 -101 -142 -9 -18 -23 -40
-30 -48 -7 -9 -20 -36 -29 -60 -9 -24 -22 -51 -30 -60 -17 -19 -65 -269 -65
-341 0 -28 6 -77 14 -108 8 -31 19 -81 25 -111 7 -32 22 -68 36 -84 14 -16 25
-34 25 -40 0 -6 28 -39 63 -73 82 -81 156 -113 261 -113 52 0 91 6 126 20 28
11 59 20 68 20 10 0 36 10 57 21 22 12 58 30 80 42 37 18 117 78 190 142 48
42 164 127 242 178 40 26 76 53 80 60 4 6 19 18 33 25 14 7 63 49 110 92 47
44 90 80 96 80 6 0 18 7 25 17 8 9 39 27 69 40 30 14 62 31 70 38 8 7 33 15
55 19 22 3 67 17 100 31 69 28 103 31 131 10 18 -13 16 -17 -51 -84 -38 -39
-75 -71 -81 -71 -12 0 -94 -80 -94 -91 0 -12 45 -19 180 -29 180 -12 396 1
448 27 20 11 55 26 77 33 22 7 54 25 71 39 16 14 45 37 63 51 33 24 85 97 117
162 68 140 119 199 228 258 60 34 140 122 181 202 37 71 38 76 43 205 4 111 2
137 -12 157 -14 22 -19 24 -44 15 -16 -5 -48 -30 -72 -54 -29 -29 -61 -50 -94
-61 -28 -9 -58 -23 -67 -30 -9 -8 -50 -18 -93 -24 -45 -6 -89 -18 -104 -28
-15 -10 -40 -24 -57 -30 -31 -13 -103 -77 -193 -175 -30 -31 -59 -57 -65 -57
-7 0 -30 -10 -52 -22 -56 -30 -156 -30 -255 2 -67 21 -93 24 -240 23 -151 0
-171 -2 -243 -27 -43 -14 -84 -26 -91 -26 -7 0 -28 -10 -47 -23 -19 -13 -53
-30 -75 -39 -23 -9 -59 -28 -80 -42 -74 -49 -144 -100 -144 -106 0 -3 -14 -14
-30 -24 -34 -19 -181 -168 -286 -290 -138 -157 -149 -168 -179 -160 -37 9 -39
20 -15 93 11 35 20 73 20 85 0 11 14 41 30 65 17 24 30 49 30 55 0 20 104 161
160 216 48 48 181 154 220 177 165 94 188 111 200 149 9 26 9 43 -1 72 -8 23
-13 97 -14 193 0 138 -3 159 -20 184 -11 15 -25 37 -32 48 -6 12 -21 28 -32
37 -19 14 -32 54 -47 150 -8 48 20 175 46 207 11 14 20 31 20 39 0 7 16 42 35
78 l35 66 0 142 0 142 -40 83 c-22 45 -45 85 -50 88 -6 4 -19 23 -30 43 -11
20 -36 57 -55 82 -20 25 -42 61 -50 80 -9 19 -25 55 -37 79 -17 36 -20 56 -16
125 6 92 -10 176 -39 209 -104 119 -142 313 -107 557 9 69 19 169 21 223 l4
97 -43 38 c-112 97 -174 173 -193 237 -8 24 -22 56 -32 71 -15 23 -18 49 -18
149 l0 120 38 63 c35 56 42 62 72 62 24 0 35 -5 40 -19 3 -11 7 -87 9 -168 2
-104 7 -156 17 -174 8 -15 25 -46 37 -69 30 -55 127 -149 172 -168 19 -8 52
-33 73 -55 42 -45 47 -80 22 -144 -24 -64 -35 -151 -35 -282 1 -154 12 -259
33 -300 9 -18 19 -51 22 -75 9 -57 38 -104 73 -117 41 -16 122 -4 183 27 60
30 171 43 195 23 28 -23 16 -61 -33 -107 -55 -51 -76 -60 -158 -72 -52 -7
-144 -39 -182 -63 -6 -4 -15 -33 -19 -63 -7 -62 11 -116 47 -142 16 -11 74
-77 159 -182 37 -45 68 -97 80 -136 7 -22 21 -62 31 -89 10 -28 19 -72 19 -98
0 -47 -40 -178 -74 -242 -86 -165 -100 -233 -77 -366 11 -61 16 -71 47 -90 26
-15 51 -21 102 -21 91 0 187 17 220 40 15 10 42 24 60 30 19 6 47 23 64 37 16
14 35 25 43 25 7 0 18 7 26 16 7 8 35 28 62 42 27 15 70 38 96 53 25 14 55 30
66 35 11 6 48 25 82 42 34 18 69 32 78 32 8 0 41 11 73 24 31 13 100 29 152
35 52 7 111 16 130 21 19 5 73 14 120 20 120 16 143 25 178 69 46 57 48 79 15
147 -64 130 -103 174 -155 174 -15 0 -48 -64 -48 -95 0 -47 -19 -102 -45 -132
l-23 -28 -29 21 c-15 11 -44 26 -63 34 -19 7 -46 21 -60 30 -14 9 -61 29 -106
43 -92 30 -206 36 -252 13 -15 -7 -49 -18 -76 -25 -27 -7 -62 -22 -77 -34 -16
-12 -51 -38 -80 -57 -28 -19 -57 -42 -65 -50 -7 -8 -37 -44 -66 -78 -89 -107
-128 -112 -128 -19 0 60 30 113 112 197 64 66 193 153 288 195 19 9 42 20 50
25 66 42 74 44 210 45 74 0 179 -4 232 -9 97 -9 97 -9 134 19 20 15 42 41 48
57 16 36 10 137 -9 158 -7 8 -22 33 -34 55 -56 104 -168 207 -260 240 -22 8
-53 22 -68 33 -15 11 -40 27 -55 36 -20 11 -28 25 -28 44 0 35 -68 142 -108
171 -28 19 -32 20 -46 5 -21 -20 -20 -24 8 -97 14 -34 29 -88 35 -119 6 -32
20 -71 31 -86 52 -70 168 -140 269 -163 25 -5 51 -14 57 -20 19 -16 1 -62 -30
-77 -34 -17 -161 -4 -276 27 -41 11 -86 21 -100 21 -14 0 -38 7 -55 16 -17 9
-76 20 -134 25 -57 5 -124 16 -148 24 -24 8 -57 15 -72 15 -23 0 -30 5 -34 28
-12 56 60 77 172 51 56 -13 93 1 121 46 26 43 27 112 1 139 -11 12 -24 47 -30
81 -5 33 -19 78 -30 100 -12 21 -21 45 -21 52 0 42 -140 148 -214 162 -26 5
-55 16 -65 25 -20 18 -114 35 -191 36 -68 0 -72 9 -37 97 28 68 29 79 19 117
-24 89 -40 113 -116 170 -80 60 -91 79 -82 132 8 40 33 50 102 40 40 -5 46 -3
55 18 9 18 7 33 -9 67 -10 24 -27 65 -36 90 -16 41 -49 82 -118 146 -12 11
-43 28 -68 37 -25 8 -79 28 -120 43 -73 28 -75 29 -78 66 -3 40 2 45 27 23 20
-17 156 -27 170 -13 19 19 12 77 -11 109 -87 116 -149 150 -398 217 -71 20
-177 75 -198 103 -7 10 -19 18 -26 18 -7 0 -23 11 -35 24 -13 14 -56 41 -95
60 -98 49 -155 49 -251 2z m-752 -931 c9 -22 18 -63 22 -91 9 -74 -24 -239
-54 -264 -3 -3 -13 -17 -21 -32 -17 -29 -100 -142 -142 -193 -16 -18 -28 -39
-28 -47 0 -19 -30 -59 -40 -53 -4 3 -11 23 -15 46 -6 33 -2 50 18 89 33 63 42
104 25 117 -8 7 -82 13 -178 15 -107 2 -173 8 -187 16 -25 14 -58 70 -48 80 4
4 55 8 113 8 164 2 230 12 298 46 110 54 172 148 146 222 -16 43 -16 123 1
129 20 7 74 -45 90 -88z m71 -877 c9 -14 3 -25 -28 -57 -32 -33 -40 -49 -44
-90 -4 -42 -1 -53 19 -74 71 -71 102 -140 80 -175 -14 -23 -74 1 -127 52 -27
25 -76 62 -109 83 l-60 38 -145 0 c-142 0 -146 -1 -185 -27 -22 -16 -45 -28
-52 -28 -7 0 -25 -13 -40 -30 -43 -49 -125 -35 -108 19 8 28 102 121 149 149
20 12 70 29 109 38 60 14 84 15 147 5 147 -22 180 -14 249 58 26 27 55 51 66
54 35 9 68 3 79 -15z m1025 -2 c8 -10 8 -21 1 -40 -14 -37 -12 -116 3 -145 14
-28 105 -70 153 -71 36 0 99 -24 109 -41 19 -30 -96 -74 -219 -84 -81 -6 -103
-12 -163 -43 -39 -21 -96 -61 -128 -89 -98 -89 -156 -108 -146 -49 3 19 86
141 127 186 17 19 24 43 29 100 6 56 15 89 38 130 69 125 158 192 196 146z
m535 -1616 c6 -6 -6 -16 -33 -28 -23 -11 -47 -27 -54 -36 -7 -10 -35 -22 -61
-27 -26 -5 -60 -17 -74 -28 -15 -10 -47 -24 -72 -31 -25 -6 -54 -20 -65 -30
-11 -10 -38 -23 -60 -29 -22 -6 -49 -17 -60 -25 -27 -20 -74 -20 -97 1 -21 19
-24 81 -5 106 20 27 154 68 275 83 63 8 128 22 145 31 62 32 136 38 161 13z"/>
<path d="M3920 7887 c-37 -18 -77 -41 -90 -50 -68 -48 -98 -68 -132 -87 -21
-11 -44 -33 -52 -48 -8 -16 -21 -34 -30 -41 -8 -7 -20 -37 -26 -66 -6 -29 -18
-59 -26 -65 -7 -7 -14 -18 -14 -26 0 -28 -138 -147 -183 -158 -16 -4 -45 -18
-65 -31 -20 -13 -49 -27 -64 -30 -15 -4 -34 -17 -42 -30 -9 -13 -24 -26 -35
-30 -20 -6 -44 -58 -33 -70 4 -4 1 -5 -7 -3 -8 2 -16 -5 -18 -14 -4 -14 0 -15
31 -6 20 6 36 15 36 19 0 4 20 15 44 24 25 10 47 23 50 31 6 16 62 19 71 4 3
-5 -3 -15 -15 -22 -11 -7 -20 -18 -20 -24 0 -6 -25 -37 -55 -69 -30 -32 -55
-63 -55 -70 0 -7 -11 -32 -23 -56 -33 -62 -39 -94 -27 -140 14 -50 41 -62 127
-57 44 3 71 10 91 25 16 12 46 25 66 28 20 4 47 16 61 27 l25 19 10 -26 c15
-41 13 -47 -38 -110 -67 -84 -148 -125 -249 -125 -39 0 -84 -5 -99 -10 -35
-14 -100 -76 -121 -115 -9 -16 -22 -34 -29 -40 -8 -5 -20 -30 -28 -55 -8 -25
-24 -70 -35 -100 -32 -86 -24 -227 14 -270 8 -8 18 -35 24 -59 5 -25 17 -49
26 -54 10 -5 24 -19 34 -30 13 -18 50 -58 130 -143 37 -40 -67 -55 -109 -16
-13 12 -27 22 -32 22 -13 0 -102 92 -160 165 -71 90 -93 110 -162 145 -69 36
-105 38 -143 6 -28 -24 -103 -135 -103 -153 0 -4 -11 -28 -24 -53 -13 -25 -27
-61 -31 -80 -3 -19 -18 -67 -31 -107 -27 -81 -31 -168 -9 -199 23 -34 69 -49
105 -34 16 7 38 9 47 5 10 -3 62 -15 116 -25 54 -11 113 -28 131 -39 17 -11
54 -25 80 -31 27 -6 62 -22 78 -35 16 -14 35 -25 43 -25 20 0 28 -32 11 -48
-12 -13 -22 -13 -78 1 -34 9 -88 25 -118 36 -43 16 -80 20 -168 21 -159 0
-172 -7 -222 -116 -29 -61 -40 -99 -40 -133 0 -58 -21 -91 -46 -75 -44 27 -58
61 -62 157 -3 70 -9 99 -22 118 l-19 24 -32 -70 c-27 -58 -33 -86 -37 -163 -4
-91 -4 -92 29 -142 29 -42 42 -52 86 -65 61 -18 95 -19 200 -4 46 6 94 20 118
34 22 12 55 26 74 30 18 4 41 15 51 25 10 10 35 23 56 30 22 7 48 20 59 30 11
10 38 23 60 30 22 7 54 20 70 30 17 10 46 21 65 25 19 4 55 17 80 28 63 29
296 37 355 13 38 -16 41 -16 56 3 9 11 19 37 23 59 3 22 13 52 21 68 30 58 21
91 -45 158 -33 34 -69 71 -80 83 -14 14 -22 36 -23 65 -2 42 -1 43 28 41 17 0
48 -7 71 -14 77 -23 127 16 91 73 -9 12 -19 40 -22 60 -4 20 -18 51 -31 69
-13 18 -24 40 -24 48 0 8 -12 48 -26 90 -32 93 -38 221 -11 261 9 14 23 52 31
85 20 84 70 177 122 227 24 24 44 47 44 52 0 6 9 20 21 32 20 21 21 35 24 246
3 229 20 374 48 407 8 9 19 31 25 48 12 35 45 84 101 147 38 44 140 116 163
116 17 0 40 25 55 60 8 20 7 29 -6 42 -10 10 -25 49 -35 87 -17 67 -17 74 -2
122 32 96 -2 113 -114 56z"/>
<path d="M6674 7827 c-33 -39 -14 -92 61 -173 25 -27 52 -61 60 -76 8 -14 31
-39 50 -55 l36 -30 58 28 c31 15 74 30 94 34 20 4 42 13 48 21 16 20 4 71 -26
110 -14 18 -25 37 -25 43 0 27 -64 82 -113 96 -62 18 -227 20 -243 2z"/>
<path d="M6975 7363 c-89 -19 -132 -70 -115 -135 6 -19 19 -43 30 -53 11 -10
20 -24 20 -32 0 -8 11 -35 25 -61 14 -26 25 -61 25 -79 0 -35 29 -63 67 -63
12 0 43 -11 69 -25 26 -14 52 -25 59 -25 7 0 29 -13 50 -30 21 -16 45 -30 55
-30 9 0 27 -12 41 -26 13 -14 38 -32 54 -40 17 -8 45 -24 64 -34 53 -30 78 2
48 60 -7 14 -21 52 -32 85 -10 33 -37 84 -59 114 -113 149 -118 158 -106 181
9 17 17 20 38 15 46 -11 106 -52 142 -95 19 -23 47 -57 62 -74 15 -18 30 -45
34 -62 3 -16 15 -42 24 -59 10 -17 23 -70 29 -122 14 -115 41 -169 142 -288
139 -162 174 -188 202 -144 14 22 0 104 -24 131 -76 90 -135 211 -149 307 -5
40 -15 82 -21 93 -6 11 -19 44 -29 74 -24 69 -130 189 -215 242 -130 83 -161
100 -193 106 -18 3 -45 15 -60 26 -18 13 -61 24 -136 35 -60 8 -112 14 -115
14 -3 -1 -15 -3 -26 -6z"/>
<path d="M2883 6820 c-13 -5 -23 -13 -23 -18 0 -5 -18 -18 -40 -31 -21 -12
-59 -45 -83 -74 -42 -50 -127 -208 -127 -236 0 -8 -9 -28 -19 -45 -29 -46 -41
-127 -25 -165 15 -35 19 -36 65 -17 19 8 55 17 82 21 52 8 77 32 77 74 0 13
11 38 23 55 13 17 27 45 31 61 4 17 16 39 27 50 11 11 43 53 72 94 29 40 56
79 62 87 6 9 3 22 -13 43 -12 17 -22 43 -22 59 0 48 -33 64 -87 42z"/>
<path d="M8265 5050 c-22 -4 -56 -14 -75 -23 -24 -10 -92 -19 -197 -26 -114
-7 -171 -14 -193 -26 -18 -9 -49 -22 -69 -30 -36 -12 -92 -45 -141 -83 -14
-11 -44 -29 -67 -41 -24 -12 -43 -26 -43 -31 0 -5 -9 -12 -20 -15 -11 -4 -32
-17 -48 -29 -15 -13 -38 -27 -52 -31 -14 -4 -38 -17 -53 -28 -20 -13 -61 -24
-127 -32 -97 -13 -260 -50 -290 -65 -9 -5 -33 -24 -53 -43 -33 -30 -39 -43
-53 -113 -8 -43 -12 -96 -8 -117 10 -60 27 -67 178 -61 169 7 309 -7 364 -36
60 -31 156 -29 228 5 29 14 60 25 68 25 9 0 35 21 59 46 95 100 113 117 157
147 45 30 183 76 277 93 42 7 84 21 99 33 15 12 32 21 38 21 19 0 95 92 102
124 3 17 15 48 25 68 19 37 31 134 22 181 -5 26 -64 98 -79 96 -5 -1 -27 -5
-49 -9z"/>
<path d="M3266 4929 c-22 -5 -44 -13 -50 -18 -6 -5 -32 -15 -58 -21 -26 -7
-59 -22 -73 -34 -13 -11 -45 -37 -69 -56 -25 -19 -48 -43 -51 -53 -4 -10 -15
-26 -26 -36 -20 -19 -49 -68 -94 -161 l-26 -55 -34 37 -34 36 29 74 c35 87 36
100 10 123 -18 16 -24 17 -61 5 -22 -8 -45 -22 -50 -32 -5 -10 -15 -18 -21
-18 -7 0 -26 -14 -43 -30 -17 -17 -42 -33 -56 -35 -13 -3 -37 -15 -54 -27 -29
-22 -36 -23 -205 -20 -147 3 -180 0 -212 -14 -21 -9 -38 -23 -38 -30 0 -7 -11
-21 -25 -31 -29 -21 -53 -103 -62 -208 -7 -85 19 -217 51 -256 12 -15 28 -40
37 -56 19 -34 112 -73 175 -73 46 0 176 34 207 55 12 8 49 23 82 34 33 11 80
27 105 36 64 25 361 15 470 -15 41 -11 116 -25 167 -30 50 -5 113 -18 140 -29
27 -11 71 -22 99 -26 27 -4 63 -15 81 -26 18 -10 48 -21 67 -25 20 -3 56 -19
81 -35 25 -16 49 -29 52 -29 18 0 126 -82 183 -140 80 -79 116 -132 170 -247
78 -165 95 -198 138 -265 39 -60 127 -148 148 -148 5 0 30 -11 55 -25 26 -13
76 -29 111 -35 36 -5 94 -23 129 -39 64 -30 67 -32 238 -222 78 -86 148 -130
220 -136 59 -6 59 -6 107 39 l47 44 -2 100 c-2 155 -20 339 -41 407 -10 34
-23 86 -29 116 -7 30 -20 68 -30 85 -10 17 -22 42 -26 56 -28 91 -173 263
-250 295 -17 8 -38 22 -48 33 -10 11 -31 22 -46 25 -15 3 -39 15 -52 26 -13
12 -39 31 -58 43 -18 13 -40 36 -50 51 -14 24 -14 29 -1 37 24 15 66 12 122
-10 29 -12 74 -25 99 -30 26 -5 64 -21 84 -35 21 -14 45 -25 54 -25 9 -1 32
-14 51 -30 82 -70 105 -27 98 185 -3 117 -8 148 -25 181 -11 21 -25 55 -32 76
-7 20 -22 48 -34 62 -12 14 -42 52 -67 84 -24 33 -61 69 -82 81 -21 12 -38 26
-38 31 0 4 -17 14 -37 21 -21 6 -56 22 -78 34 -30 17 -70 26 -160 35 -133 14
-229 7 -461 -32 l-131 -22 -98 24 c-72 17 -107 31 -131 52 -17 15 -34 28 -37
28 -6 0 -78 70 -128 126 -44 48 -98 94 -111 94 -6 0 -33 12 -61 26 -58 29
-157 39 -221 23z"/>
<path d="M8440 3912 c-25 -26 -63 -54 -87 -62 -29 -11 -53 -30 -82 -70 l-42
-55 4 -130 c2 -99 8 -141 22 -177 11 -26 17 -50 13 -53 -4 -4 -34 6 -67 22
l-61 29 -27 -29 c-16 -16 -48 -39 -73 -50 -25 -10 -52 -25 -60 -32 -8 -7 -39
-18 -69 -24 -56 -12 -86 -30 -157 -97 -36 -34 -44 -48 -44 -77 0 -57 -15 -84
-50 -92 -19 -4 -36 -3 -42 3 -6 6 -14 51 -17 99 l-6 88 -145 11 c-171 13 -218
20 -285 44 -27 10 -74 21 -104 25 -30 3 -66 12 -80 19 -57 29 -89 27 -149 -6
-54 -30 -84 -50 -142 -97 -22 -18 -89 -71 -130 -104 -8 -7 -42 -33 -75 -59
-101 -79 -117 -92 -144 -119 -50 -51 -182 -158 -201 -164 -11 -4 -20 -10 -20
-14 0 -4 -38 -27 -85 -51 l-86 -43 -198 -2 c-191 -2 -221 -5 -221 -26 0 -12
-71 -158 -115 -234 -58 -102 -60 -109 -56 -225 1 -49 6 -62 47 -118 33 -43 60
-68 89 -81 34 -15 44 -26 50 -52 7 -29 4 -36 -23 -59 -50 -41 -85 -100 -90
-151 -3 -36 2 -61 26 -115 17 -38 41 -76 54 -84 13 -8 29 -23 36 -32 7 -10 19
-18 26 -18 8 0 42 -13 77 -30 40 -18 94 -33 144 -39 44 -5 100 -17 125 -26 65
-24 428 -26 481 -2 19 8 66 23 103 31 70 17 133 48 200 101 44 34 156 146 156
156 0 3 14 20 30 37 17 18 30 37 30 43 0 5 11 25 25 43 14 18 25 39 25 47 0 8
12 39 26 69 21 46 24 62 18 110 -3 30 -14 69 -24 85 -9 17 -20 45 -23 62 -5
26 -2 35 14 43 24 13 32 8 105 -66 30 -31 55 -68 62 -92 15 -50 19 -52 85 -59
36 -3 66 0 97 12 25 9 83 26 129 36 46 11 96 28 110 38 14 10 37 21 51 24 61
15 210 165 210 212 0 38 -20 46 -70 29 -25 -8 -61 -23 -81 -34 -21 -11 -84
-26 -151 -36 -105 -15 -124 -15 -223 -1 -74 11 -114 22 -129 35 -12 10 -37 25
-56 32 -19 7 -42 19 -50 26 -10 8 -27 10 -55 5 -67 -13 -154 -42 -161 -53 -4
-6 -31 -21 -61 -34 -29 -13 -56 -31 -59 -39 -3 -7 -27 -21 -54 -30 -26 -9 -86
-32 -132 -52 -45 -19 -103 -42 -128 -50 -25 -8 -61 -22 -80 -32 -19 -10 -62
-24 -95 -31 -33 -7 -76 -20 -95 -30 -19 -10 -66 -23 -104 -29 -38 -7 -83 -19
-99 -27 -34 -18 -205 -30 -226 -16 -19 14 -6 30 40 49 21 8 39 18 39 22 0 9
61 31 86 31 10 0 46 14 79 30 33 16 67 30 75 30 8 0 35 11 60 24 25 13 61 26
81 30 21 4 48 15 62 26 13 11 46 24 73 30 27 6 62 19 79 29 16 10 48 22 70 26
22 3 63 20 91 36 28 16 60 29 70 29 11 0 35 11 54 23 19 13 47 27 62 30 31 8
85 40 131 78 18 14 42 31 54 38 12 6 39 37 60 68 76 115 80 349 7 436 -13 16
-24 35 -24 42 0 7 -11 22 -24 32 -13 10 -27 33 -31 51 -9 44 14 51 71 23 25
-11 49 -21 56 -21 15 0 88 -68 121 -113 26 -35 77 -169 77 -201 0 -7 -7 -27
-15 -43 -8 -17 -24 -64 -34 -106 -20 -76 -19 -95 11 -162 12 -28 69 -65 115
-76 82 -19 232 0 311 39 20 11 51 22 67 26 17 4 46 18 65 30 19 13 45 26 58
30 12 4 49 24 80 44 32 20 74 47 93 59 100 63 308 272 377 379 28 43 58 86 67
95 8 9 15 20 15 26 0 5 14 31 31 57 17 25 35 65 41 88 5 22 17 53 27 67 21 31
51 208 51 301 -1 64 -29 214 -46 241 -13 22 -57 69 -63 68 -3 0 -26 -21 -51
-47z m-2494 -2097 c17 -8 61 -21 99 -29 39 -8 88 -22 110 -32 30 -13 70 -17
160 -17 118 -1 121 0 195 35 41 20 92 39 112 43 33 6 38 4 51 -22 15 -28 14
-30 -28 -71 -24 -23 -47 -42 -52 -42 -5 0 -24 -11 -42 -24 -18 -14 -58 -33
-87 -42 -30 -9 -54 -20 -54 -25 0 -4 -25 -13 -56 -19 -75 -16 -220 -4 -254 21
-30 22 -118 45 -221 57 -41 5 -94 19 -118 31 -38 20 -42 25 -36 49 9 38 23 51
80 77 59 28 101 30 141 10z"/>
<path d="M2703 3909 c-34 -4 -76 -15 -93 -24 -18 -9 -57 -23 -86 -31 -30 -8
-65 -20 -77 -28 -32 -22 -104 -35 -212 -41 -106 -6 -176 -31 -194 -72 -38 -83
-16 -184 55 -257 26 -26 61 -54 78 -63 17 -8 40 -23 51 -33 18 -16 64 -30 148
-47 44 -9 155 25 175 53 9 14 25 34 35 46 13 16 17 40 17 98 0 64 3 80 20 95
10 9 26 15 34 12 17 -7 61 -96 71 -147 4 -19 21 -67 36 -107 16 -39 29 -80 29
-91 0 -11 11 -33 24 -49 13 -15 26 -37 30 -48 3 -11 36 -53 73 -92 58 -62 80
-78 150 -108 103 -45 137 -44 227 1 91 46 92 47 129 117 18 33 39 73 48 89 19
36 36 48 71 48 17 0 31 -7 38 -20 13 -25 6 -140 -10 -171 -18 -33 -7 -161 20
-246 13 -40 27 -73 31 -73 4 0 15 -25 24 -55 10 -30 21 -55 25 -55 3 0 22 -13
40 -30 18 -16 37 -30 41 -30 9 0 87 -61 120 -96 23 -23 42 -29 137 -42 96 -14
124 -14 209 -3 189 26 210 26 222 2 9 -16 8 -27 -4 -50 -20 -40 -19 -74 4
-120 21 -40 85 -90 140 -107 48 -15 61 -38 36 -63 -19 -19 -22 -19 -90 -3 -39
9 -83 25 -99 35 -15 10 -45 25 -67 32 -22 8 -51 23 -65 34 -13 10 -48 22 -77
26 -28 3 -83 15 -122 25 -38 11 -113 24 -165 30 -81 9 -108 17 -189 58 -91 45
-141 89 -141 124 0 9 -16 39 -35 68 -19 29 -35 57 -35 63 0 5 -11 24 -24 41
-12 17 -31 46 -40 64 -9 17 -22 32 -28 32 -7 0 -25 12 -40 27 -22 21 -40 28
-86 31 -55 4 -60 2 -102 -33 -61 -51 -70 -66 -87 -143 -17 -74 -35 -102 -68
-102 -16 0 -27 13 -45 51 -24 50 -25 62 -21 192 2 37 -2 73 -7 80 -5 7 -15 29
-21 49 -14 43 -156 181 -209 203 -18 8 -39 21 -48 29 -8 9 -34 20 -57 26 -23
6 -60 21 -82 33 -36 19 -59 22 -208 25 -147 4 -170 2 -187 -13 -41 -37 22
-129 126 -182 61 -31 68 -33 211 -38 81 -2 162 -9 178 -14 68 -21 132 -56 168
-93 32 -33 38 -45 35 -76 l-3 -37 -46 1 c-25 1 -61 10 -80 19 -25 14 -75 20
-209 27 -153 8 -181 12 -225 33 -27 13 -63 27 -80 31 -38 8 -105 45 -105 56 0
5 -4 6 -10 3 -13 -8 -13 -55 -1 -55 5 0 13 -10 17 -22 20 -66 154 -237 226
-291 46 -34 56 -34 94 2 24 23 33 41 38 81 8 63 27 73 66 35 21 -20 31 -43 38
-85 6 -32 22 -84 36 -115 14 -30 26 -57 26 -59 0 -2 15 -29 34 -60 39 -65 136
-161 192 -192 149 -80 207 -97 341 -102 l112 -3 7 26 c3 14 4 48 2 75 -4 38
-1 54 13 69 39 41 88 -1 101 -86 6 -39 17 -66 34 -84 13 -14 24 -30 24 -35 0
-13 138 -144 152 -144 5 0 21 -9 36 -20 37 -27 203 -55 276 -46 31 4 65 15 77
25 l21 17 -21 34 c-28 49 -38 118 -18 126 19 7 53 -10 88 -43 29 -27 69 -51
142 -84 26 -12 47 -25 47 -30 0 -5 26 -16 58 -24 31 -9 83 -25 115 -36 89 -30
265 -27 359 6 39 14 79 25 87 25 9 0 36 13 61 30 129 83 170 144 198 295 28
145 35 235 23 265 -17 44 -69 93 -93 87 -11 -3 -57 -2 -101 3 -103 12 -125 27
-298 201 -100 100 -146 140 -175 149 -21 7 -59 23 -84 35 -25 12 -71 25 -104
28 -37 4 -66 13 -80 25 -11 11 -37 25 -56 31 -42 13 -134 100 -170 160 -14 23
-37 58 -52 78 -16 20 -28 41 -28 47 0 15 -75 164 -93 184 -8 10 -18 27 -21 38
-4 12 -17 33 -29 47 -12 14 -42 49 -66 76 -24 28 -49 51 -54 51 -6 0 -33 14
-60 32 -48 31 -54 32 -153 31 -93 0 -108 -3 -166 -32 -36 -17 -68 -31 -73 -31
-5 0 -19 -10 -32 -22 -30 -28 -57 -15 -61 29 -4 37 37 89 84 109 50 21 51 33
6 74 -28 27 -54 40 -84 45 -24 4 -61 16 -82 26 -67 34 -257 47 -403 28z"/>
<path d="M8225 2570 c-3 -5 -22 -17 -42 -26 -19 -10 -67 -44 -107 -76 -58 -47
-73 -66 -83 -100 -13 -48 -59 -165 -73 -188 -6 -8 -19 -32 -30 -53 -31 -57
-169 -191 -227 -221 -29 -14 -54 -30 -58 -36 -3 -5 -25 -14 -48 -20 -23 -6
-58 -19 -77 -30 -20 -10 -63 -23 -97 -29 -34 -5 -76 -17 -94 -26 -18 -10 -64
-21 -102 -26 -71 -9 -107 -28 -107 -58 0 -9 -11 -29 -25 -45 -26 -31 -32 -60
-14 -72 6 -3 66 -6 132 -5 109 1 127 4 170 26 27 14 61 25 76 25 38 0 208 89
300 157 39 30 185 177 216 218 17 22 35 45 40 50 10 9 42 58 111 165 12 19 25
46 29 60 4 14 17 39 30 55 12 17 25 43 29 59 4 16 18 43 32 59 13 16 24 36 24
45 0 9 9 32 20 50 11 18 20 37 20 42 0 13 -37 13 -45 0z"/>
<path d="M2267 2348 c-15 -12 -15 -17 -1 -57 8 -25 23 -56 33 -70 10 -14 21
-35 25 -47 9 -28 189 -214 208 -214 8 0 23 -8 32 -19 9 -10 38 -27 64 -36 26
-10 56 -24 67 -31 11 -7 56 -22 100 -33 44 -11 98 -26 120 -35 22 -8 60 -15
85 -16 25 0 64 -9 86 -19 23 -11 67 -25 98 -32 30 -6 65 -21 76 -31 11 -10 38
-25 61 -33 61 -22 151 -108 214 -206 69 -107 133 -165 239 -218 l71 -36 165 1
c149 0 169 2 210 21 25 12 70 27 100 34 30 6 75 22 100 35 25 13 52 24 60 24
9 0 38 11 66 24 27 13 67 29 89 36 22 7 54 21 71 31 17 11 40 19 52 19 11 0
46 14 77 30 31 17 67 30 79 30 24 0 177 75 232 113 36 25 104 122 104 147 0
10 -7 23 -15 30 -11 9 -25 5 -72 -24 -32 -20 -63 -36 -69 -36 -6 0 -19 -9 -29
-20 -10 -11 -37 -25 -59 -31 -23 -6 -59 -21 -81 -33 -25 -14 -65 -25 -105 -29
-36 -3 -85 -13 -109 -21 -51 -19 -208 -22 -261 -5 -19 6 -80 19 -135 29 -55
10 -118 23 -139 29 -39 10 -48 9 -186 -21 -30 -6 -112 -12 -181 -12 -120 0
-128 1 -165 26 -22 14 -51 32 -65 39 -26 15 -79 71 -117 126 -12 17 -39 42
-60 55 -34 21 -49 23 -172 24 -164 0 -218 12 -335 70 -145 73 -209 114 -330
214 -44 37 -91 73 -105 80 -14 7 -36 22 -50 32 -116 89 -114 87 -143 66z"/>
<path d="M2859 1664 c-9 -11 -9 -21 -1 -39 7 -14 15 -25 20 -25 4 0 16 -15 26
-32 25 -45 217 -220 291 -265 33 -20 72 -47 87 -59 15 -12 41 -25 57 -29 16
-3 37 -15 47 -26 9 -10 35 -22 56 -26 22 -3 55 -16 74 -29 19 -13 41 -24 49
-24 8 0 58 -14 112 -31 116 -37 218 -48 258 -27 25 14 26 16 11 31 -9 9 -33
19 -54 23 -20 4 -61 17 -90 30 -29 13 -59 24 -66 24 -7 0 -33 13 -57 30 -24
16 -48 30 -53 30 -8 0 -54 36 -110 86 -15 14 -46 46 -68 72 -121 145 -152 174
-217 203 -38 17 -97 34 -139 39 -40 5 -80 14 -90 19 -9 5 -43 16 -74 24 -50
13 -59 13 -69 1z"/>
<path d="M7469 1480 c-26 -10 -93 -24 -150 -30 -56 -6 -114 -17 -128 -25 -14
-7 -46 -18 -71 -25 -62 -16 -111 -50 -212 -150 -119 -116 -192 -175 -256 -204
-18 -9 -45 -25 -59 -36 -14 -11 -32 -20 -39 -20 -7 0 -37 -11 -66 -24 -116
-52 -351 -69 -452 -33 -79 28 -57 41 92 56 50 5 103 16 119 25 17 8 61 22 99
31 38 9 78 22 90 30 11 7 41 19 65 25 37 10 83 29 169 70 8 4 16 17 18 29 2
11 13 26 24 32 14 8 17 14 9 22 -7 7 -16 6 -28 -6 -11 -10 -46 -18 -88 -22
-39 -4 -121 -15 -184 -26 -142 -24 -357 -26 -441 -4 -32 8 -108 19 -168 24
-60 5 -119 14 -131 21 -76 40 -216 54 -246 23 -28 -27 -16 -156 18 -208 45
-69 81 -112 110 -131 20 -14 27 -26 25 -44 -3 -20 6 -29 52 -53 l55 -30 295
11 c246 8 306 13 360 30 36 11 88 25 117 31 28 6 68 22 89 36 20 14 40 25 44
25 17 0 133 81 194 136 13 11 37 29 54 40 72 46 114 76 132 94 11 11 26 20 33
20 8 0 21 8 31 18 9 11 35 25 59 32 23 7 67 23 97 35 30 13 73 26 95 30 22 3
55 15 73 26 18 10 44 19 58 19 14 0 41 9 62 20 20 12 55 31 77 43 22 12 40 29
40 37 0 23 -81 23 -136 0z"/>
<path d="M5188 1430 c-14 -10 -57 -28 -95 -39 -39 -10 -80 -24 -92 -31 -12 -6
-52 -19 -89 -29 -37 -11 -85 -26 -107 -34 -22 -9 -54 -16 -70 -17 -17 0 -54
-15 -85 -35 -30 -19 -58 -35 -62 -35 -11 0 -48 -76 -48 -100 0 -43 34 -142 54
-156 106 -75 106 -75 233 -74 113 0 151 5 218 29 95 33 128 40 146 30 19 -10
27 -59 10 -59 -5 0 -22 -13 -38 -29 -16 -15 -40 -32 -53 -36 -14 -4 -34 -16
-45 -26 -22 -19 -132 -47 -222 -56 -29 -3 -89 2 -135 11 -46 8 -110 18 -143
21 -33 4 -67 13 -76 21 -9 8 -51 21 -93 29 -42 8 -89 21 -104 29 -68 34 -212
47 -246 21 -11 -8 -18 -16 -15 -19 16 -14 52 -25 104 -31 33 -4 75 -16 93 -27
20 -12 64 -24 108 -29 46 -5 88 -16 108 -28 19 -12 67 -26 111 -32 44 -6 97
-20 119 -32 35 -18 59 -21 156 -22 110 0 118 1 182 33 37 17 72 32 78 32 6 0
37 26 70 58 100 95 111 102 177 102 108 0 133 23 68 61 -19 12 -35 25 -35 30
0 9 -56 50 -110 80 -16 9 -40 24 -55 33 -27 18 -67 22 -275 30 -116 4 -150 11
-150 27 0 13 45 29 80 29 33 0 129 23 157 38 10 5 37 13 60 17 23 4 59 20 79
36 20 16 43 29 51 29 16 0 50 52 63 99 17 61 -31 91 -82 51z"/>
<path d="M5470 851 c0 -14 38 -24 66 -17 14 4 22 11 19 16 -8 13 -85 13 -85 1z"/>
</g>
</svg>
