<?xml version="1.0" standalone="no"?>
<!DOCTYPE svg PUBLIC "-//W3C//DTD SVG 20010904//EN"
 "http://www.w3.org/TR/2001/REC-SVG-20010904/DTD/svg10.dtd">
<svg version="1.0" xmlns="http://www.w3.org/2000/svg"
 width="1080.000000pt" height="1077.000000pt" viewBox="0 0 1080.000000 1077.000000"
 preserveAspectRatio="xMidYMid meet">
  <defs>
    <linearGradient id="gradient1" x1="0%" y1="0%" x2="100%" y2="0%">
      <stop offset="0%" style="stop-color:#00FFCB;stop-opacity:1" />
      <stop offset="100%" style="stop-color:#46A0AE;stop-opacity:1" />
    </linearGradient>
  </defs>

<g transform="translate(0.000000,1077.000000) scale(0.100000,-0.100000)"
   fill="url(#gradient1)" stroke="none">
<path d="M2698 10763 c1486 -2 3918 -2 5405 0 1486 1 270 2 -2703 2 -2973 0
-4189 -1 -2702 -2z"/>
<path d="M483 10184 c-20 -8 -16 -23 15 -58 15 -18 38 -47 52 -66 14 -18 34
-45 45 -59 12 -14 39 -61 60 -103 22 -43 46 -88 52 -100 7 -13 13 -32 13 -43
0 -11 9 -35 20 -53 11 -17 22 -51 26 -75 3 -23 14 -62 24 -87 10 -25 21 -71
25 -103 3 -31 15 -87 26 -125 10 -37 19 -96 19 -132 0 -36 9 -108 21 -160 11
-52 24 -159 30 -237 5 -79 14 -155 20 -170 6 -16 17 -89 25 -163 7 -75 20
-151 27 -170 8 -19 18 -64 21 -99 4 -35 15 -84 25 -110 10 -25 22 -64 25 -86
4 -22 16 -54 27 -71 10 -17 19 -38 19 -46 0 -28 166 -338 181 -338 5 0 9 -4 9
-10 0 -15 63 -96 148 -189 64 -70 187 -179 277 -245 11 -9 34 -26 50 -39 17
-13 45 -33 64 -43 48 -27 62 -36 98 -61 17 -13 35 -23 40 -23 5 0 24 -11 42
-24 19 -14 46 -28 62 -31 15 -4 33 -13 40 -21 6 -8 19 -14 29 -14 9 0 37 -11
62 -24 25 -13 60 -27 79 -31 19 -4 48 -15 64 -25 17 -10 50 -21 75 -25 25 -4
56 -14 69 -22 12 -8 53 -19 90 -24 36 -5 89 -18 116 -28 28 -10 92 -21 144
-25 52 -4 128 -14 170 -22 49 -9 197 -18 421 -24 190 -5 400 -13 467 -16 l123
-7 8 24 c10 27 0 73 -21 98 -8 9 -19 31 -25 48 -6 18 -16 38 -21 45 -13 15
-83 144 -113 208 -11 24 -27 50 -34 58 -8 7 -14 19 -14 26 0 7 -10 26 -22 41
-11 15 -31 45 -42 66 -31 57 -97 170 -116 199 -38 56 -96 145 -115 175 -11 18
-32 50 -47 71 -15 22 -47 66 -70 100 -76 107 -165 227 -234 312 -38 46 -75 95
-85 110 -9 15 -32 43 -50 62 -19 19 -81 91 -139 160 -141 167 -166 194 -375
401 -216 213 -190 189 -350 323 -140 117 -142 118 -197 171 -21 19 -42 35 -48
35 -5 0 -10 5 -10 10 0 6 14 10 30 10 17 0 30 -5 30 -10 0 -6 19 -19 43 -29
23 -10 48 -26 56 -35 7 -9 17 -16 21 -16 4 0 49 -28 99 -62 51 -35 105 -69
119 -77 15 -8 47 -30 72 -50 25 -20 65 -50 90 -66 25 -16 59 -41 77 -55 18
-14 42 -33 55 -42 122 -91 199 -162 467 -428 347 -346 550 -572 662 -736 20
-28 41 -57 47 -65 37 -43 72 -93 77 -110 4 -10 11 -19 16 -19 5 0 17 -16 26
-35 9 -19 20 -35 25 -35 4 0 18 -19 30 -41 37 -67 44 -79 65 -102 10 -12 25
-33 31 -47 7 -14 26 -45 42 -70 16 -25 36 -61 45 -80 9 -19 21 -39 28 -45 7
-5 30 -45 52 -87 22 -42 52 -98 67 -125 15 -26 37 -66 48 -88 11 -22 24 -47
29 -55 5 -8 24 -46 41 -85 17 -38 36 -77 41 -85 5 -8 16 -31 25 -50 8 -19 26
-58 39 -85 14 -28 25 -56 25 -64 0 -7 9 -24 20 -38 11 -14 20 -34 20 -45 0
-10 9 -36 19 -56 26 -51 61 -139 74 -187 6 -22 18 -51 28 -65 9 -14 20 -43 24
-65 3 -22 13 -50 21 -62 8 -12 19 -46 25 -75 6 -29 17 -62 24 -73 7 -11 16
-41 20 -65 4 -25 15 -63 25 -86 9 -22 20 -61 24 -87 4 -27 16 -67 26 -90 11
-23 20 -56 20 -73 0 -17 11 -66 24 -110 13 -43 27 -105 30 -138 4 -32 14 -77
22 -100 8 -22 17 -77 20 -121 3 -44 14 -114 24 -155 11 -41 24 -142 30 -225 6
-82 15 -163 20 -180 5 -16 14 -70 19 -119 6 -48 15 -94 21 -101 6 -7 43 -24
83 -37 64 -20 91 -23 237 -22 163 0 166 0 220 30 73 39 82 64 53 147 -12 34
-24 81 -27 104 -3 23 -15 62 -26 88 -11 26 -20 64 -20 86 0 21 -9 55 -20 76
-10 21 -26 71 -34 112 -9 40 -20 79 -26 86 -5 6 -13 34 -16 61 -4 27 -13 59
-20 71 -8 12 -19 46 -25 75 -6 29 -18 67 -27 83 -8 17 -21 56 -27 88 -14 63
-3 144 27 202 9 17 19 46 23 65 4 19 13 44 19 55 7 11 19 38 26 60 7 22 18 47
25 55 7 8 16 26 20 39 4 13 22 51 41 85 19 33 43 80 54 102 11 23 26 47 34 53
8 7 18 26 21 42 4 16 11 29 16 29 5 0 19 18 31 41 13 22 30 53 38 67 8 15 25
37 38 50 12 12 22 26 22 31 0 11 38 67 95 141 19 25 39 54 44 65 5 11 18 29
30 39 11 11 21 23 21 29 0 5 11 18 25 29 14 11 25 24 25 30 0 6 9 20 20 32 11
11 45 53 76 91 30 39 61 75 67 80 7 6 41 44 77 85 166 191 337 370 455 475 17
15 55 50 85 78 31 29 91 84 134 122 44 39 85 76 93 83 31 31 155 132 161 132
4 0 28 19 54 43 75 67 90 80 143 116 28 19 73 53 101 75 29 23 67 50 85 61 18
11 43 27 54 35 12 8 50 34 86 57 35 23 72 48 81 57 9 8 31 22 49 32 18 9 37
20 43 25 26 22 90 60 122 74 19 8 34 18 34 23 0 5 18 15 40 22 22 7 40 16 40
19 0 4 37 26 83 50 45 23 89 47 97 52 8 5 31 15 50 23 19 8 46 21 60 30 52 30
218 105 257 115 22 6 46 18 53 26 7 8 21 15 32 15 10 0 40 11 66 25 26 14 56
25 67 25 11 0 44 11 73 25 30 14 68 25 84 25 17 0 46 10 65 21 46 29 157 39
166 15 5 -12 -5 -19 -48 -31 -29 -9 -58 -22 -65 -29 -6 -8 -23 -17 -37 -21
-15 -3 -38 -14 -52 -24 -14 -10 -38 -21 -52 -24 -14 -4 -36 -15 -48 -26 -12
-11 -36 -23 -52 -26 -16 -4 -32 -11 -35 -17 -3 -5 -25 -19 -48 -29 -43 -21
-88 -46 -208 -117 -125 -74 -153 -91 -168 -102 -8 -5 -44 -29 -80 -52 -36 -23
-69 -45 -75 -50 -5 -5 -39 -28 -74 -51 -35 -23 -76 -51 -91 -62 -15 -11 -40
-29 -56 -40 -29 -19 -77 -55 -103 -77 -20 -16 -104 -79 -131 -98 -23 -15 -176
-139 -265 -213 -27 -23 -79 -69 -115 -102 -35 -33 -85 -78 -109 -100 -167
-149 -362 -342 -498 -491 -92 -102 -113 -125 -174 -190 -25 -27 -92 -105 -149
-174 -57 -69 -112 -133 -122 -143 -26 -26 -41 -68 -29 -80 14 -14 780 -29
1111 -22 190 4 306 11 348 21 35 8 107 19 160 24 53 6 118 18 144 26 26 9 75
19 109 24 34 5 69 16 78 24 9 8 39 20 66 26 27 6 54 15 60 20 7 6 32 17 56 25
48 17 151 66 159 76 3 4 21 14 40 24 52 25 115 60 131 73 47 39 78 61 104 75
68 35 323 288 416 412 33 44 67 89 77 100 9 11 23 31 30 45 6 14 26 45 42 70
16 25 37 61 46 80 9 19 25 45 35 59 10 13 19 31 19 41 0 10 9 29 20 43 11 14
20 32 20 40 0 8 11 34 24 59 13 25 27 60 31 79 4 19 13 44 21 57 8 12 19 48
25 79 6 31 17 66 24 77 8 12 17 41 21 66 4 25 17 71 30 102 13 32 24 71 24 88
0 17 8 45 17 63 9 18 22 59 29 92 14 66 46 166 75 233 11 23 19 50 19 60 0 9
11 35 25 57 13 22 25 50 25 61 0 12 8 32 19 45 10 13 22 35 26 49 4 14 14 36
23 50 18 28 35 57 71 121 13 24 30 49 37 57 8 7 14 17 14 21 0 5 11 20 25 36
20 21 23 30 14 41 -16 19 -59 17 -159 -7 -57 -13 -148 -23 -280 -30 -107 -5
-220 -14 -250 -19 -70 -11 -290 -19 -910 -30 -272 -5 -505 -11 -516 -14 -46
-10 -215 -26 -334 -32 -69 -3 -147 -12 -175 -20 -27 -8 -87 -19 -132 -25 -46
-5 -105 -18 -133 -29 -28 -11 -61 -20 -74 -20 -13 0 -48 -11 -78 -25 -29 -14
-65 -25 -79 -25 -15 0 -37 -8 -50 -19 -13 -10 -42 -24 -63 -31 -22 -7 -53 -21
-70 -30 -17 -10 -42 -21 -55 -25 -14 -4 -29 -12 -35 -17 -6 -5 -43 -28 -83
-51 -134 -79 -209 -135 -304 -228 -97 -95 -199 -213 -199 -229 0 -5 -7 -15
-15 -23 -8 -8 -33 -50 -56 -94 -22 -43 -44 -82 -49 -88 -4 -5 -13 -28 -20 -50
-6 -22 -21 -58 -31 -81 -10 -22 -19 -53 -19 -67 0 -15 -9 -55 -20 -88 -12 -34
-25 -108 -30 -166 -5 -57 -15 -132 -21 -166 -16 -86 -16 -312 0 -435 l13 -102
-35 -43 c-29 -36 -93 -106 -165 -182 -11 -11 -55 -63 -99 -115 -43 -52 -89
-106 -102 -120 -13 -14 -56 -70 -96 -125 -41 -55 -81 -109 -89 -120 -9 -11
-32 -45 -52 -75 -21 -30 -40 -57 -44 -60 -8 -5 -36 -50 -69 -111 -11 -19 -27
-41 -35 -48 -9 -8 -16 -19 -16 -26 0 -7 -9 -24 -20 -38 -12 -14 -26 -41 -32
-59 -9 -27 -60 -88 -73 -88 -2 0 -9 17 -16 38 -6 20 -20 48 -30 61 -11 13 -19
31 -19 41 0 9 -11 38 -25 64 -14 26 -25 55 -25 65 0 10 -9 29 -19 43 -11 13
-24 42 -30 65 -6 22 -18 46 -26 53 -8 7 -17 27 -21 46 -3 18 -12 38 -20 44 -7
7 -18 28 -25 48 -7 20 -20 47 -30 60 -10 13 -20 36 -24 52 -3 16 -13 34 -20
40 -8 6 -19 28 -26 48 -7 20 -20 48 -30 61 -11 13 -19 30 -19 37 0 7 -11 30
-25 50 -14 20 -25 45 -25 54 0 10 -6 23 -14 29 -11 9 -10 22 10 76 13 36 30
75 38 88 8 12 17 38 21 57 4 19 13 42 21 50 7 9 18 38 24 65 6 28 18 60 25 72
8 12 18 41 21 65 4 24 15 64 25 91 11 26 22 73 25 105 4 31 13 75 21 97 19 52
43 324 44 490 1 187 -19 429 -41 495 -10 30 -21 75 -24 98 -4 24 -15 60 -25
80 -10 21 -22 52 -26 71 -4 19 -16 48 -26 65 -10 17 -19 39 -19 48 0 9 -11 30
-25 46 -14 17 -25 36 -25 44 0 8 -9 23 -20 33 -11 10 -20 22 -20 27 0 14 -56
93 -115 163 -77 91 -223 228 -270 252 -16 9 -32 19 -35 23 -3 4 -23 17 -45 29
-22 12 -85 46 -140 76 -55 30 -107 58 -115 61 -31 12 -115 50 -168 77 -29 15
-62 27 -71 27 -9 0 -27 7 -39 16 -12 8 -45 22 -74 30 -28 9 -61 22 -72 29 -12
7 -45 18 -74 24 -29 6 -63 17 -75 25 -12 8 -44 17 -72 21 -27 4 -62 13 -77 21
-15 8 -62 19 -105 24 -43 6 -94 17 -113 24 -19 8 -78 19 -130 25 -52 7 -117
18 -143 26 -26 8 -94 17 -150 20 -56 4 -151 15 -212 26 -60 10 -180 21 -265
25 -85 3 -198 12 -250 20 -52 9 -185 19 -295 24 -210 10 -378 25 -395 35 -6 3
-81 11 -168 16 -86 6 -177 17 -200 25 -24 8 -78 17 -120 20 -43 3 -104 14
-137 24 -71 21 -135 31 -152 24z m8932 -1514 c-28 -12 -45 -12 -45 0 0 6 15
10 33 9 27 0 29 -2 12 -9z"/>
<path d="M5906 4842 c-16 -3 -17 -10 -11 -60 4 -32 14 -75 22 -97 8 -22 21
-66 28 -99 8 -32 17 -62 22 -66 18 -17 154 -42 271 -51 69 -4 148 -15 176 -23
28 -8 85 -18 126 -21 41 -4 100 -15 130 -25 30 -10 75 -21 100 -25 60 -9 196
-52 242 -76 20 -10 46 -19 57 -19 11 0 22 -4 25 -9 3 -5 25 -18 48 -30 145
-72 221 -179 189 -263 -15 -39 -119 -136 -174 -162 -123 -57 -144 -66 -160
-66 -9 0 -34 -9 -54 -20 -20 -10 -57 -22 -82 -26 -25 -4 -55 -13 -66 -20 -12
-8 -57 -19 -100 -25 -44 -6 -95 -17 -113 -25 -19 -7 -80 -18 -135 -24 -56 -5
-133 -16 -172 -25 -42 -9 -208 -21 -420 -31 -294 -13 -403 -14 -680 -4 -383
13 -586 26 -635 40 -19 6 -84 15 -145 20 -60 5 -146 19 -189 30 -44 11 -95 20
-115 20 -20 1 -54 8 -76 16 -22 9 -66 22 -98 29 -32 7 -63 18 -70 23 -7 5 -30
15 -52 21 -80 24 -185 82 -252 139 -45 38 -87 124 -78 159 9 36 71 113 120
148 48 34 143 85 159 85 6 0 28 9 48 20 21 11 57 23 80 26 24 4 56 13 71 21
16 8 61 20 100 28 40 8 88 20 107 28 19 8 68 17 107 21 40 3 93 13 117 21 25
9 92 19 151 24 58 4 111 13 118 20 28 28 -6 258 -46 309 -14 18 -120 15 -212
-7 -44 -11 -121 -23 -170 -26 -50 -4 -110 -14 -135 -22 -25 -8 -89 -21 -143
-29 -54 -7 -107 -18 -118 -24 -11 -6 -48 -16 -81 -21 -34 -6 -80 -19 -104 -29
-24 -11 -58 -20 -76 -20 -18 0 -47 -9 -65 -19 -17 -11 -49 -23 -70 -27 -21 -3
-51 -14 -68 -24 -16 -10 -48 -23 -70 -30 -41 -13 -100 -40 -145 -65 -14 -8
-43 -24 -65 -35 -83 -43 -178 -113 -232 -170 -47 -50 -103 -156 -103 -196 0
-17 7 -51 15 -75 9 -24 22 -71 29 -104 8 -33 21 -81 30 -107 40 -120 48 -146
60 -193 7 -28 20 -64 28 -80 8 -17 18 -50 22 -75 4 -24 15 -58 25 -75 10 -16
22 -47 25 -67 4 -21 16 -57 26 -80 11 -24 20 -54 20 -68 0 -14 11 -46 25 -72
14 -26 25 -60 25 -75 0 -15 12 -50 25 -78 14 -27 25 -61 25 -75 0 -14 7 -35
15 -47 8 -12 20 -45 26 -73 6 -29 19 -67 29 -84 10 -17 21 -49 25 -71 4 -21
15 -56 26 -77 10 -20 19 -48 19 -60 0 -13 11 -44 25 -70 14 -26 25 -58 25 -70
0 -13 9 -42 20 -63 11 -22 23 -58 27 -80 3 -22 13 -53 23 -70 10 -16 21 -48
25 -70 3 -21 15 -55 25 -75 10 -20 22 -53 26 -75 4 -21 15 -53 24 -69 10 -17
21 -49 25 -71 3 -22 13 -50 20 -62 8 -11 19 -43 26 -70 6 -26 17 -57 25 -69 7
-12 16 -39 20 -60 4 -21 15 -55 24 -74 10 -19 21 -51 25 -70 4 -19 16 -52 26
-72 11 -21 19 -48 19 -61 0 -13 11 -44 24 -69 13 -25 27 -59 31 -77 17 -77
103 -201 140 -201 7 0 18 -7 26 -16 7 -9 30 -23 51 -31 21 -8 38 -19 38 -23 0
-4 21 -13 48 -21 26 -7 61 -21 77 -31 17 -10 40 -18 53 -18 12 0 41 -9 65 -19
23 -11 71 -25 107 -31 36 -6 94 -20 129 -31 35 -10 86 -19 115 -19 28 0 94 -9
146 -20 239 -49 1168 -49 1380 0 47 11 108 20 136 20 28 0 83 11 122 25 39 14
84 25 99 25 16 1 46 8 68 16 22 9 64 22 93 29 29 7 64 20 76 29 13 8 39 18 59
21 20 4 43 16 53 26 9 10 25 19 34 19 39 0 185 134 197 180 3 14 14 41 23 60
9 19 22 57 29 83 6 27 18 59 25 70 8 12 17 40 21 62 3 22 13 50 21 62 8 12 19
46 25 75 6 29 17 60 25 69 8 8 18 38 23 65 6 27 19 67 31 89 11 21 20 51 20
65 0 14 9 40 20 58 11 17 23 51 26 75 4 23 14 56 24 72 10 17 21 48 25 70 3
21 15 56 26 77 10 20 19 48 19 60 0 13 11 46 25 73 13 28 25 59 25 70 0 11 10
40 21 65 11 25 24 63 29 85 4 22 17 63 28 90 27 70 51 141 66 200 7 28 19 64
28 80 8 17 18 46 22 66 3 20 15 54 26 77 11 23 20 51 20 64 0 13 9 40 20 61
12 21 25 57 29 80 5 23 18 65 29 92 28 72 52 143 66 200 7 28 21 65 30 82 9
18 16 42 16 55 0 13 12 46 25 73 14 28 25 63 25 78 0 15 11 49 25 75 14 26 25
58 25 72 0 14 11 57 25 95 30 85 34 194 9 240 -9 17 -23 41 -30 55 -15 29
-120 140 -133 140 -4 0 -16 9 -26 20 -10 11 -24 20 -30 20 -7 0 -29 14 -50 30
-21 17 -46 30 -55 30 -10 0 -23 7 -30 14 -6 8 -28 20 -48 27 -20 6 -49 20 -64
30 -14 11 -34 19 -45 19 -10 0 -40 12 -68 25 -27 14 -58 25 -68 25 -10 0 -38
9 -63 20 -24 11 -65 25 -92 30 -26 5 -63 15 -82 23 -19 8 -57 18 -85 22 -27 4
-70 15 -95 25 -25 10 -79 20 -120 24 -41 4 -109 16 -150 26 -41 10 -112 21
-158 25 -45 3 -120 14 -165 24 -45 11 -134 22 -197 26 -63 4 -133 10 -155 15
-54 12 -116 17 -139 12z"/>

</g>
</svg>
