<?xml version="1.0" standalone="no"?>
<!DOCTYPE svg PUBLIC "-//W3C//DTD SVG 20010904//EN"
 "http://www.w3.org/TR/2001/REC-SVG-20010904/DTD/svg10.dtd">
<svg version="1.0" xmlns="http://www.w3.org/2000/svg"
 width="506.000000pt" height="826.000000pt" viewBox="0 0 506.000000 826.000000"
 preserveAspectRatio="xMidYMid meet">
  <defs>
    <linearGradient id="gradient1" x1="0%" y1="0%" x2="100%" y2="0%">
      <stop offset="0%" style="stop-color:#00FFCB;stop-opacity:1" />
      <stop offset="100%" style="stop-color:#46A0AE;stop-opacity:1" />
    </linearGradient>
  </defs>

<g transform="translate(0.000000,826.000000) scale(0.100000,-0.100000)"
   fill="url(#gradient1)" stroke="none">
<path d="M1376 8128 c-15 -279 -41 -474 -97 -708 -31 -129 -98 -352 -129 -430
-10 -25 -31 -76 -45 -114 -15 -38 -31 -77 -35 -85 -5 -9 -36 -74 -69 -144
-119 -250 -291 -524 -468 -743 -48 -60 -127 -158 -176 -219 -112 -139 -215
-291 -264 -392 -37 -76 -38 -81 -38 -188 1 -103 2 -113 30 -160 38 -65 99
-125 177 -176 l63 -40 6 148 c7 147 22 229 59 331 127 340 447 606 798 662 80
13 278 13 353 1 72 -12 223 -62 291 -97 128 -65 269 -184 360 -304 69 -91 153
-266 179 -375 44 -184 34 -398 -26 -575 -14 -40 -25 -77 -25 -82 0 -4 90 -8
200 -8 153 0 200 3 200 13 0 6 -9 37 -21 67 -12 30 -30 99 -40 153 -101 519
220 1030 746 1188 72 22 98 24 270 24 218 0 278 -12 442 -90 223 -105 378
-258 488 -480 75 -151 105 -278 105 -442 0 -84 4 -123 11 -123 23 0 150 93
182 133 76 95 82 112 82 232 0 104 -2 114 -33 180 -58 123 -199 323 -377 535
-542 648 -858 1425 -905 2224 -5 98 -10 187 -10 197 0 19 -29 19 -1139 19
l-1139 0 -6 -132z m465 -241 c19 -12 45 -44 58 -71 22 -44 24 -61 23 -160 -4
-318 -112 -685 -332 -1131 -119 -241 -150 -288 -203 -314 -118 -57 -248 20
-249 148 0 44 8 65 55 149 242 430 387 871 387 1177 0 116 14 153 71 194 55
40 137 44 190 8z m1190 -560 c236 -80 411 -275 460 -510 10 -50 19 -113 19
-138 0 -91 -30 -211 -77 -309 -39 -81 -58 -108 -132 -180 -101 -99 -185 -148
-310 -180 -118 -31 -281 -25 -394 15 -209 73 -370 244 -438 465 -34 110 -32
273 4 385 50 153 149 285 275 369 78 51 121 70 217 97 101 28 271 22 376 -14z"/>
<path d="M2732 7005 c-70 -20 -87 -29 -145 -84 -71 -66 -99 -128 -104 -226 -6
-109 11 -158 58 -166 89 -15 127 -56 155 -166 4 -17 110 -36 163 -28 93 13 88
9 93 85 6 103 53 154 155 168 l48 7 3 72 c5 133 -58 241 -179 307 -80 43 -165
54 -247 31z m115 -88 c65 -45 95 -136 68 -205 -65 -161 -297 -137 -330 34 -14
76 44 171 118 193 44 14 106 4 144 -22z"/>
<path d="M3575 5533 c-16 -2 -53 -10 -81 -18 -41 -12 -53 -20 -67 -50 -55
-115 28 -245 156 -245 151 0 228 181 122 287 -34 34 -49 37 -130 26z"/>
<path d="M1342 5339 c-61 -30 -85 -70 -90 -146 -4 -51 0 -68 17 -97 71 -115
243 -106 307 16 18 35 18 111 0 146 -19 37 -55 68 -98 87 -50 20 -85 19 -136
-6z"/>
<path d="M3944 5106 c-61 -27 -101 -107 -90 -180 23 -141 202 -196 295 -91
101 116 27 286 -125 285 -27 -1 -63 -7 -80 -14z"/>
<path d="M3249 4987 c-102 -69 -108 -211 -11 -285 30 -23 45 -27 101 -27 53 0
72 5 99 23 44 32 72 90 72 150 0 60 -43 126 -95 148 -53 22 -126 18 -166 -9z"/>
<path d="M1005 4825 c-127 -45 -150 -217 -40 -300 92 -71 231 -22 266 94 23
78 -15 160 -91 199 -51 25 -79 27 -135 7z"/>
<path d="M1535 4826 c-138 -51 -150 -240 -20 -313 139 -79 302 73 237 219 -38
86 -130 126 -217 94z"/>
<path d="M3450 4574 c-48 -21 -70 -42 -91 -92 -72 -167 144 -321 272 -193 89
89 70 223 -41 279 -51 26 -91 27 -140 6z"/>
<path d="M1227 4410 c-44 -24 -82 -80 -91 -133 -13 -75 51 -165 132 -185 143
-34 257 109 192 242 -40 84 -152 120 -233 76z"/>
<path d="M3964 4329 c-42 -12 -101 -79 -110 -123 -16 -89 33 -173 117 -201 60
-20 111 -11 166 31 44 34 70 113 54 170 -27 101 -123 153 -227 123z"/>
<path d="M1615 4055 c-71 -38 -98 -85 -96 -164 2 -92 72 -161 164 -161 67 0
114 25 148 79 51 80 32 176 -47 230 -45 31 -127 39 -169 16z"/>
<path d="M3330 3960 c-59 -35 -85 -83 -85 -155 0 -52 4 -67 28 -98 38 -50 80
-70 145 -69 45 0 61 6 91 30 71 58 92 133 58 214 -35 84 -159 125 -237 78z"/>
<path d="M4739 3850 c-30 -14 -54 -35 -72 -62 -95 -147 68 -327 223 -248 59
30 90 82 90 150 0 132 -122 213 -241 160z"/>
<path d="M168 3770 c-54 -29 -81 -73 -86 -141 -6 -74 17 -122 72 -153 56 -32
90 -38 136 -26 109 29 159 141 111 247 -38 82 -149 117 -233 73z"/>
<path d="M2544 3779 c-18 -5 -48 -27 -67 -48 -112 -124 2 -319 165 -280 157
37 182 244 38 317 -46 23 -84 26 -136 11z"/>
<path d="M957 3173 c-2 -5 2 -60 9 -123 7 -63 21 -178 29 -255 9 -77 19 -155
22 -172 l5 -33 94 0 94 0 0 295 0 295 -124 0 c-69 0 -127 -3 -129 -7z"/>
<path d="M1560 2885 l0 -295 94 0 95 0 6 48 c3 26 10 76 15 112 12 86 43 368
44 400 l1 25 -127 3 -128 3 0 -296z"/>
<path d="M3225 3160 c-3 -11 -4 -24 -1 -28 3 -5 12 -75 21 -158 8 -82 20 -180
25 -219 5 -38 12 -91 15 -117 l6 -48 95 0 94 0 0 295 0 295 -124 0 c-116 0
-125 -1 -131 -20z"/>
<path d="M3830 2885 l0 -295 95 0 94 0 5 33 c3 17 12 93 21 167 8 74 22 188
30 253 9 65 13 122 10 128 -4 5 -62 9 -131 9 l-124 0 0 -295z"/>
<path d="M2127 2793 c-5 -9 -22 -132 -37 -278 -14 -129 -25 -167 -56 -205 -53
-62 -29 -60 -652 -60 l-569 0 -34 23 c-68 46 -86 98 -105 307 -5 47 -11 70
-20 70 -26 0 -147 -31 -217 -57 -202 -73 -319 -150 -368 -245 -29 -56 -26
-145 7 -212 58 -119 221 -309 522 -609 l189 -188 34 34 c48 48 104 64 165 47
93 -26 149 -122 123 -210 -13 -43 -60 -102 -89 -112 -12 -4 -10 -11 10 -39
216 -293 312 -542 340 -883 5 -71 10 -140 10 -152 l0 -24 1139 0 c902 0 1140
3 1144 13 2 6 5 55 6 107 7 345 122 657 346 941 101 128 183 217 440 479 322
328 413 432 490 560 34 56 40 75 43 136 3 53 0 81 -13 108 -27 57 -126 141
-218 185 -95 46 -271 106 -338 116 l-46 7 -7 -84 c-13 -147 -33 -228 -63 -261
-57 -59 -32 -57 -651 -57 l-569 0 -34 23 c-54 37 -76 78 -88 169 -16 128 -41
336 -41 348 0 12 -786 14 -793 3z m-971 -612 c58 -26 87 -72 92 -142 8 -108
-58 -179 -166 -179 -49 0 -66 5 -99 29 -42 30 -73 90 -73 139 0 34 31 102 56
123 59 51 122 61 190 30z m2136 -111 c176 -49 166 -302 -13 -335 -81 -15 -177
47 -194 125 -19 88 28 176 110 205 49 17 51 17 97 5z m-1624 -64 c73 -38 115
-130 92 -201 -26 -77 -88 -125 -165 -125 -55 0 -93 18 -129 60 -93 111 -17
280 127 280 26 0 60 -6 75 -14z m2212 -176 c101 -52 106 -228 8 -288 -107 -66
-246 -6 -264 113 -21 146 121 244 256 175z m-963 -326 c47 -35 66 -70 71 -128
4 -46 0 -62 -22 -100 -67 -115 -238 -111 -295 8 -45 92 -9 198 79 235 39 17
136 8 167 -15z m-1174 -188 c149 -54 155 -254 9 -318 -55 -25 -108 -20 -158
14 -118 80 -91 267 45 308 38 12 61 11 104 -4z m1845 -50 c122 -64 129 -239
12 -305 -97 -54 -218 -2 -251 109 -21 68 16 149 85 191 37 23 115 25 154 5z
m-401 -701 c120 -50 138 -220 31 -297 -27 -18 -46 -23 -99 -23 -56 0 -71 4
-102 28 -49 37 -67 75 -67 139 0 121 123 201 237 153z m-1383 -94 c72 -17 126
-88 126 -166 0 -137 -149 -218 -260 -142 -117 79 -104 240 25 298 46 21 55 22
109 10z"/>
</g>
</svg>
