<?xml version="1.0" standalone="no"?>
<!DOCTYPE svg PUBLIC "-//W3C//DTD SVG 20010904//EN"
 "http://www.w3.org/TR/2001/REC-SVG-20010904/DTD/svg10.dtd">
<svg version="1.0" xmlns="http://www.w3.org/2000/svg"
 width="762.000000pt" height="965.000000pt" viewBox="0 0 762.000000 965.000000"
 preserveAspectRatio="xMidYMid meet">
  <defs>
    <linearGradient id="gradient1" x1="0%" y1="0%" x2="100%" y2="0%">
      <stop offset="0%" style="stop-color:#00FFCB;stop-opacity:1" />
      <stop offset="100%" style="stop-color:#46A0AE;stop-opacity:1" />
    </linearGradient>
  </defs>


<g transform="translate(0.000000,965.000000) scale(0.100000,-0.100000)"
   fill="url(#gradient1)" stroke="none" >
<path d="M939 9515 c-59 -32 -59 -35 -59 -390 l0 -325 -315 0 c-299 0 -318 -1
-356 -21 -27 -13 -45 -32 -55 -54 -21 -52 -21 -8558 0 -8610 30 -71 -274 -65
3273 -65 2518 0 3203 3 3222 13 38 19 65 63 67 110 1 23 2 169 3 325 l1 282
315 0 c338 0 345 1 393 52 l22 24 0 3664 c0 3388 -1 3665 -17 3689 -9 14 -53
64 -98 111 -45 47 -117 123 -161 170 -43 46 -88 94 -99 105 -11 12 -105 113
-210 225 -104 113 -210 225 -235 250 -25 25 -126 133 -225 239 -99 106 -192
199 -207 207 -41 21 -5220 20 -5259 -1z m5063 -840 l3 -595 38 -37 37 -38 555
-3 555 -2 0 -3475 0 -3475 -3020 0 -3020 0 0 4110 0 4110 2425 0 2425 0 2
-595z m592 41 c155 -164 312 -331 349 -372 l69 -74 -371 0 -371 0 0 392 0 391
21 -19 c12 -10 148 -153 303 -318z m-5714 -4011 c0 -3435 2 -3829 15 -3856 9
-16 30 -39 48 -49 32 -20 72 -20 2770 -20 l2737 0 0 -235 0 -235 -3020 0
-3020 0 0 4110 0 4110 235 0 235 0 0 -3825z"/>
<path d="M3312 8455 c-71 -61 -68 -160 6 -210 l37 -25 817 0 818 0 36 33 c66
60 57 166 -17 213 l-39 24 -808 0 -808 0 -42 -35z"/>
<path d="M2988 8017 c-36 -30 -48 -58 -48 -110 0 -53 27 -93 76 -113 28 -12
224 -14 1155 -14 1267 0 1174 -6 1211 78 26 58 17 105 -27 149 l-33 33 -1153
0 -1154 0 -27 -23z"/>
<path d="M2815 6763 c-23 -4 -95 -69 -327 -301 l-297 -296 -104 101 c-124 121
-159 136 -231 104 -53 -23 -76 -61 -76 -125 0 -54 0 -53 194 -246 75 -74 152
-142 172 -152 72 -32 84 -22 462 355 189 188 350 354 358 369 18 35 18 101 -1
137 -13 27 -79 63 -108 60 -6 -1 -25 -4 -42 -6z"/>
<path d="M3373 6644 c-67 -33 -93 -126 -54 -190 42 -69 -62 -65 1626 -62 1648
3 1554 0 1588 58 24 41 22 121 -4 154 -47 60 61 56 -1601 56 -1375 0 -1526 -2
-1555 -16z"/>
<path d="M3385 6207 c-48 -15 -85 -65 -85 -114 0 -41 33 -108 60 -123 13 -7
510 -10 1570 -10 1693 0 1581 -4 1608 56 17 36 15 112 -5 144 -34 58 60 55
-1588 57 -1162 1 -1529 -1 -1560 -10z"/>
<path d="M2805 4759 c-11 -6 -154 -145 -317 -308 l-298 -296 -102 102 c-57 55
-113 106 -125 112 -53 27 -143 0 -168 -50 -19 -36 -19 -102 -1 -137 8 -15 84
-96 169 -181 147 -145 157 -153 200 -158 25 -3 57 -3 70 1 23 5 718 691 738
727 15 28 11 107 -8 135 -19 29 -82 64 -115 64 -13 0 -32 -5 -43 -11z"/>
<path d="M3363 4630 c-61 -37 -81 -116 -43 -177 41 -68 -81 -63 1610 -63 1682
0 1572 -4 1605 60 17 33 20 96 5 134 -5 14 -24 35 -42 46 -33 20 -51 20 -1568
20 -1505 0 -1536 0 -1567 -20z"/>
<path d="M3363 4190 c-81 -49 -83 -163 -4 -219 l29 -21 1539 0 c1520 0 1538 0
1571 20 18 11 37 32 42 46 15 39 12 117 -6 142 -38 55 56 52 -1606 52 -1503 0
-1534 0 -1565 -20z"/>
<path d="M2795 2749 c-11 -6 -151 -142 -312 -302 l-292 -291 -109 106 c-121
118 -151 133 -220 106 -73 -27 -107 -131 -64 -196 26 -40 286 -299 324 -322
39 -23 88 -26 126 -6 33 18 705 692 721 723 16 32 13 101 -5 132 -31 53 -117
78 -169 50z"/>
<path d="M3391 2639 c-104 -31 -124 -171 -33 -235 31 -21 3099 -21 3141 0 35
19 51 55 51 116 0 60 -33 104 -88 120 -49 13 -3023 12 -3071 -1z"/>
<path d="M3390 2202 c-103 -46 -119 -170 -31 -237 26 -20 46 -20 1559 -23
l1534 -2 38 21 c46 26 60 54 60 120 0 42 -5 55 -34 87 l-34 37 -1539 2 c-846
1 -1545 -1 -1553 -5z"/>
</g>
</svg>
