<?xml version="1.0" standalone="no"?>
<!DOCTYPE svg PUBLIC "-//W3C//DTD SVG 20010904//EN"
 "http://www.w3.org/TR/2001/REC-SVG-20010904/DTD/svg10.dtd">
<svg version="1.0" xmlns="http://www.w3.org/2000/svg"
 width="720.000000pt" height="798.000000pt" viewBox="0 0 720.000000 798.000000"
 preserveAspectRatio="xMidYMid meet">
  <defs>
    <linearGradient id="gradient1" x1="0%" y1="0%" x2="100%" y2="0%">
      <stop offset="0%" style="stop-color:#00FFCB;stop-opacity:1" />
      <stop offset="100%" style="stop-color:#46A0AE;stop-opacity:1" />
    </linearGradient>
  </defs>

<g transform="translate(0.000000,798.000000) scale(0.100000,-0.100000)"
   fill="url(#gradient1)" stroke="none">
<path d="M5229 7848 c-8 -7 -34 -31 -59 -52 -120 -104 -282 -272 -372 -387
-23 -30 -44 -56 -48 -59 -24 -20 -205 -287 -286 -420 -21 -36 -41 -67 -44 -70
-15 -15 -244 -466 -279 -550 -12 -30 -31 -73 -41 -95 -28 -63 -70 -169 -70
-178 0 -4 -9 -26 -19 -50 -11 -23 -36 -91 -56 -152 -20 -60 -41 -119 -45 -130
-12 -27 -109 -354 -132 -440 -6 -22 -14 -49 -18 -60 -10 -27 -57 -226 -70
-300 -7 -33 -16 -68 -21 -77 -5 -10 -9 -27 -9 -39 0 -12 -4 -38 -9 -58 -15
-55 -40 -188 -56 -287 -8 -49 -19 -116 -25 -149 -6 -33 -15 -91 -20 -130 -5
-38 -15 -110 -23 -160 -9 -49 -23 -157 -32 -240 -9 -82 -20 -181 -25 -220 -5
-38 -14 -135 -20 -215 -6 -80 -15 -170 -20 -200 -5 -30 -14 -95 -20 -145 -12
-86 -52 -268 -69 -310 -5 -11 -14 -38 -20 -60 -7 -22 -26 -74 -43 -115 -58
-144 -61 -151 -151 -340 -86 -181 -100 -228 -105 -358 -5 -138 8 -211 55 -310
43 -92 140 -197 220 -240 281 -149 616 -21 719 274 64 185 54 360 -38 644 -17
52 -34 100 -37 105 -4 6 -13 28 -20 50 -7 22 -16 49 -21 60 -5 11 -19 56 -31
100 -51 189 -52 192 -51 540 1 305 6 420 32 675 5 52 16 174 25 270 8 96 20
202 25 235 6 33 17 112 25 175 26 196 79 518 115 695 4 22 13 65 18 95 12 63
69 303 82 340 4 14 14 52 21 85 7 33 16 65 19 70 4 6 11 28 15 50 3 22 15 65
24 95 10 30 35 109 56 175 20 66 43 134 50 150 7 17 16 41 20 55 3 14 10 34
15 45 5 11 16 40 24 65 15 44 63 165 90 225 8 17 33 75 57 130 74 172 207 427
322 620 99 166 298 456 383 558 18 22 12 34 -7 15z"/>
<path d="M1490 4123 c-177 -13 -527 -49 -600 -62 -30 -6 -90 -15 -133 -20
-106 -14 -304 -50 -347 -63 -101 -31 -192 -90 -248 -161 -79 -99 -92 -147 -92
-351 0 -156 1 -168 17 -161 10 4 56 16 103 27 47 11 94 24 105 28 11 5 45 14
75 21 30 6 80 18 110 26 30 9 87 21 125 29 39 7 102 19 140 28 129 27 359 64
465 76 58 6 121 13 140 15 94 14 484 35 635 35 356 0 643 -58 883 -178 170
-85 262 -207 298 -397 6 -33 8 -34 19 -18 7 10 25 57 39 104 36 119 37 283 2
385 -38 113 -83 182 -178 277 -47 47 -214 167 -232 167 -3 0 -33 13 -68 29
-91 41 -176 71 -233 82 -27 5 -70 14 -95 20 -50 11 -90 18 -295 48 -113 17
-184 20 -365 19 -124 -1 -245 -3 -270 -5z"/>
<path d="M5400 4104 c-249 -23 -503 -77 -637 -135 -24 -11 -47 -19 -53 -19 -6
0 -18 -4 -28 -9 -9 -5 -37 -19 -62 -31 -237 -120 -383 -261 -473 -460 -62
-137 -72 -190 -71 -390 1 -145 5 -198 18 -245 10 -33 22 -76 26 -95 23 -99 36
-105 45 -22 4 31 11 71 15 87 5 17 14 55 21 85 19 85 87 232 142 305 61 81
215 215 246 215 6 0 11 3 11 8 0 4 15 13 33 21 17 7 49 22 70 32 128 64 323
123 495 148 89 13 420 14 545 2 51 -6 155 -15 232 -21 77 -6 167 -15 200 -20
33 -6 112 -17 175 -25 115 -15 277 -43 420 -72 41 -8 100 -18 129 -23 30 -5
86 -16 123 -25 37 -10 75 -15 83 -11 12 4 15 32 15 165 0 188 -13 239 -83 314
-65 70 -133 102 -262 122 -60 9 -121 18 -135 21 -14 2 -61 8 -105 14 -44 5
-107 14 -140 20 -67 11 -211 25 -420 40 -128 9 -490 11 -575 4z"/>
<path d="M5250 3464 c-254 -47 -304 -59 -324 -76 -6 -4 -17 -8 -25 -8 -14 0
-34 -9 -161 -68 -129 -61 -227 -139 -292 -235 -48 -71 -96 -170 -104 -217 -4
-19 -10 -39 -14 -45 -5 -5 -14 -54 -20 -108 -15 -115 -8 -489 10 -552 40 -142
52 -361 26 -490 -41 -204 -141 -383 -293 -526 -90 -85 -221 -157 -353 -194
-103 -29 -280 -25 -392 9 -95 28 -194 77 -261 128 -57 43 -165 156 -172 179
-4 11 -10 19 -14 19 -11 0 -77 146 -102 225 -30 96 -33 343 -5 450 19 75 93
274 107 290 5 5 9 15 9 22 0 7 9 32 20 56 27 59 61 147 71 182 112 417 87 623
-89 745 -41 28 -148 80 -165 80 -6 0 -24 7 -39 14 -30 16 -139 46 -228 64
-246 49 -492 52 -1010 12 -186 -15 -382 -41 -535 -71 -55 -10 -127 -24 -160
-30 -33 -6 -73 -15 -90 -20 -16 -5 -102 -25 -190 -45 -88 -19 -169 -39 -180
-44 -11 -5 -45 -14 -75 -21 -30 -6 -71 -17 -90 -24 l-35 -13 -3 -1446 c-2
-1429 -2 -1447 18 -1489 11 -23 37 -53 57 -67 l37 -25 3385 -3 c1862 -1 3400
0 3417 3 44 8 103 63 120 110 11 33 14 282 14 1525 l0 1486 -42 11 c-24 7 -70
17 -103 23 -33 7 -78 16 -100 20 -22 5 -65 14 -95 19 -30 6 -104 19 -165 31
-60 11 -144 25 -185 31 -41 6 -100 15 -130 20 -55 8 -98 13 -385 44 -144 15
-613 29 -665 19z m163 -351 c72 -46 87 -147 33 -218 -51 -66 -159 -71 -221 -9
-77 76 -52 194 50 243 48 23 84 19 138 -16z m-3597 0 c48 -25 84 -87 84 -145
0 -91 -56 -158 -141 -171 -174 -26 -271 190 -135 299 57 46 124 52 192 17z
m4198 -1 c25 -23 46 -66 46 -95 0 -38 -41 -91 -82 -104 -71 -23 -139 19 -154
95 -9 47 33 113 81 125 31 8 88 -3 109 -21z m-4939 -26 c61 -28 101 -75 120
-140 19 -64 19 -75 -5 -140 -37 -98 -121 -152 -226 -143 -83 6 -142 45 -183
120 -25 46 -29 149 -6 193 59 117 186 164 300 110z m5536 -16 c73 -14 114 -34
158 -80 62 -64 85 -121 86 -209 0 -123 -54 -213 -163 -267 -47 -24 -69 -29
-132 -29 -149 0 -256 88 -290 238 -12 52 -12 67 4 124 19 74 45 116 96 159 53
45 76 54 181 73 4 1 31 -4 60 -9z m-4007 -61 c62 -28 74 -141 21 -186 -20 -18
-39 -23 -79 -23 -29 0 -59 6 -68 13 -27 22 -48 61 -48 90 0 86 92 143 174 106z
m-2107 -175 c73 -35 106 -140 68 -214 -43 -83 -157 -111 -229 -57 -47 36 -66
75 -66 134 0 115 120 187 227 137z m4371 -10 c61 -30 111 -98 113 -153 5 -113
-10 -155 -70 -209 -76 -69 -212 -70 -284 -3 -85 78 -106 190 -51 278 66 107
183 142 292 87z m1036 -77 c88 -67 98 -187 24 -271 -71 -82 -188 -85 -264 -9
-64 64 -69 178 -12 248 42 51 80 66 154 62 49 -2 69 -9 98 -30z m-3640 9 c67
-28 116 -104 116 -180 0 -40 -39 -114 -74 -140 -17 -12 -50 -28 -72 -35 -36
-12 -49 -11 -92 3 -53 18 -107 64 -123 104 -13 35 -11 118 5 156 15 36 72 87
108 98 40 11 98 8 132 -6z m-1155 -241 c36 -31 61 -78 61 -115 0 -14 -13 -46
-29 -71 -52 -83 -154 -89 -221 -13 -25 29 -30 43 -30 89 0 43 5 59 27 85 32
39 55 49 115 49 36 1 53 -5 77 -24z m4230 -55 c58 -59 48 -147 -21 -190 -51
-31 -101 -26 -145 14 -35 31 -37 38 -37 91 0 52 3 60 32 86 27 24 41 29 86 29
47 0 58 -4 85 -30z m-3558 -52 c56 -33 101 -81 131 -138 18 -36 23 -61 23
-125 0 -97 -23 -152 -88 -212 -59 -55 -92 -70 -164 -78 -124 -14 -223 31 -290
131 -32 48 -37 64 -41 132 -5 98 8 148 58 211 65 82 133 112 246 108 66 -3 89
-8 125 -29z m-1084 -49 c54 -30 79 -56 102 -105 37 -77 23 -180 -31 -236 -56
-59 -89 -73 -168 -73 -67 0 -80 3 -120 30 -182 123 -101 402 117 404 46 1 73
-5 100 -20z m5628 -35 c47 -22 68 -59 68 -117 -1 -39 -6 -55 -29 -78 -16 -16
-45 -34 -65 -41 -71 -21 -152 43 -152 121 0 48 22 85 66 111 39 24 68 25 112
4z m-644 -68 c68 -29 111 -94 113 -170 0 -59 -28 -117 -77 -156 -45 -36 -151
-41 -201 -10 -70 43 -103 113 -90 195 7 51 59 118 108 140 41 18 106 18 147 1z"/>
</g>
</svg>
