<?xml version="1.0" standalone="no"?>
<!DOCTYPE svg PUBLIC "-//W3C//DTD SVG 20010904//EN"
 "http://www.w3.org/TR/2001/REC-SVG-20010904/DTD/svg10.dtd">
<svg version="1.0" xmlns="http://www.w3.org/2000/svg"
 width="1080.000000pt" height="1077.000000pt" viewBox="0 0 1080.000000 1077.000000"
 preserveAspectRatio="xMidYMid meet">
  <defs>
    <linearGradient id="gradient1" x1="0%" y1="0%" x2="100%" y2="0%">
      <stop offset="0%" style="stop-color:#00FFCB;stop-opacity:1" />
      <stop offset="100%" style="stop-color:#46A0AE;stop-opacity:1" />
    </linearGradient>
  </defs>

<g transform="translate(0.000000,1077.000000) scale(0.100000,-0.100000)"
   fill="url(#gradient1)" stroke="none">

<path d="M7568 10133 c-9 -12 -19 -60 -27 -133 -22 -220 -45 -410 -61 -525 -5
-33 -14 -108 -21 -167 -19 -165 -15 -169 256 -187 177 -13 335 -26 495 -41 58
-6 139 -13 180 -17 89 -7 144 -27 133 -47 -4 -8 -211 -218 -458 -469 -413
-417 -454 -455 -491 -461 -49 -9 -70 -1 -192 72 -323 193 -633 289 -1108 342
-113 13 -397 13 -461 1 -26 -5 -111 -19 -188 -31 -222 -34 -452 -94 -585 -152
-83 -37 -244 -117 -310 -154 -148 -85 -160 -87 -230 -49 -420 227 -755 324
-1215 351 -214 13 -674 -9 -955 -127 -19 -6 -48 -14 -65 -18 -32 -9 -101 -35
-152 -57 -17 -8 -34 -14 -38 -14 -7 0 -181 -87 -235 -117 -220 -125 -391 -256
-580 -443 -341 -336 -562 -692 -688 -1110 -44 -148 -70 -269 -91 -440 -66
-519 -16 -964 154 -1376 183 -444 441 -804 785 -1096 300 -255 741 -470 1165
-568 28 -6 56 -17 62 -23 9 -9 13 -72 15 -224 3 -194 2 -212 -16 -232 -37 -41
-64 -42 -538 -37 -249 3 -470 2 -491 -1 -70 -11 -68 1 -69 -491 0 -310 3 -446
11 -461 6 -11 24 -24 39 -28 14 -3 253 -7 529 -7 468 -1 503 -2 520 -19 17
-16 18 -51 19 -490 1 -260 2 -480 3 -489 1 -10 10 -27 21 -38 19 -19 33 -20
469 -20 427 0 450 1 472 19 l24 19 -4 469 c-3 408 -1 473 12 505 9 21 17 39
19 40 2 1 232 5 511 8 l508 5 19 25 c19 24 20 46 19 465 0 470 1 464 -50 483
-14 6 -219 8 -484 7 -493 -4 -510 -2 -536 46 -8 16 -13 84 -14 207 -2 172 -1
186 19 214 24 34 53 51 111 66 274 70 419 125 643 240 180 92 191 93 317 29
129 -65 206 -99 320 -141 55 -20 110 -41 122 -46 60 -25 269 -78 388 -99 187
-32 235 -36 460 -36 303 0 462 19 741 91 144 37 390 130 494 187 243 131 439
263 575 386 398 360 693 823 825 1296 42 148 60 237 90 445 29 194 -1 707 -55
947 -54 243 -157 495 -305 748 -89 151 -93 161 -76 193 23 42 892 905 908 900
24 -8 30 -53 58 -478 6 -85 15 -196 20 -247 6 -50 10 -119 10 -153 0 -76 20
-127 53 -135 33 -9 788 23 847 35 25 5 61 9 81 10 20 0 39 6 41 13 8 23 -44
806 -72 1067 -5 52 -14 140 -19 195 -6 55 -15 145 -21 200 -45 427 -66 652
-84 923 -7 112 -17 207 -22 212 -16 15 -709 90 -1104 120 -80 6 -185 15 -235
20 -49 5 -146 14 -215 20 -143 12 -162 14 -324 35 -143 19 -552 55 -617 55
-31 0 -51 -6 -61 -17z m-1338 -2648 c350 -41 637 -162 912 -384 66 -53 172
-163 267 -276 46 -55 130 -192 180 -294 118 -240 171 -470 171 -746 0 -279
-48 -490 -169 -741 -197 -410 -535 -714 -970 -874 -184 -67 -339 -92 -576 -93
-227 -1 -350 21 -537 95 -85 34 -99 48 -78 82 89 141 254 503 305 666 44 141
61 210 88 340 36 176 42 248 42 500 0 272 -8 342 -65 600 -26 118 -107 359
-155 465 -74 163 -132 277 -193 383 -40 68 -72 126 -72 130 0 15 157 76 277
107 98 25 294 52 398 54 28 0 106 -6 175 -14z m-2910 -15 c64 -10 351 -72 420
-90 19 -5 41 -19 48 -30 14 -24 4 -48 -59 -141 -164 -243 -293 -577 -359 -929
-41 -226 -51 -533 -25 -783 44 -415 192 -838 419 -1200 36 -58 66 -110 66
-116 0 -23 -212 -95 -390 -132 -83 -17 -381 -23 -481 -10 -221 29 -477 117
-686 235 -193 108 -402 307 -541 513 -23 34 -42 64 -42 66 0 3 -15 31 -33 64
-97 171 -181 428 -208 638 -15 115 -6 392 16 505 102 527 443 988 902 1219
267 134 511 199 748 200 77 1 169 -4 205 -9z m1369 -928 c53 -105 98 -219 122
-307 58 -218 79 -336 79 -458 0 -83 -6 -137 -31 -297 -26 -167 -97 -382 -171
-523 -33 -61 -65 -80 -94 -56 -19 15 -88 154 -123 244 -13 33 -26 69 -31 80
-4 11 -13 40 -20 65 -7 25 -16 56 -20 70 -66 202 -66 591 -1 845 53 210 168
455 212 455 14 0 34 -29 78 -118z"/>

</g>
</svg>
